<svg width="56" height="60" viewBox="0 0 56 60" fill="none" xmlns="http://www.w3.org/2000/svg">
<g clip-path="url(#clip0_227_1291)">
<path d="M28.8813 56.6735V46.1171H27.1184V56.6751L21.8281 57.8254V60H34.1716V57.8254L28.8813 56.6735Z" fill="#292927"/>
<path d="M28.0007 50.4711C20.7947 50.4711 14.9326 44.6243 14.9326 37.4387V31.492C14.9326 30.9955 15.3368 30.5923 15.8346 30.5923C16.3324 30.5923 16.7366 30.9955 16.7366 31.492V37.4387C16.7366 43.6329 21.7887 48.6718 27.999 48.6718C34.2094 48.6718 39.2598 43.6329 39.2598 37.4387V31.492C39.2598 30.9955 39.664 30.5923 40.1618 30.5923C40.6596 30.5923 41.0638 30.9955 41.0638 31.492V37.4387C41.0638 44.6259 35.2017 50.4711 27.9974 50.4711H28.0007Z" fill="#9B9B9A"/>
<path d="M36.9168 37.2225C36.9168 42.1336 32.9244 46.1156 28.0005 46.1156C23.075 46.1156 19.0842 42.1336 19.0842 37.2225V23.5396C19.0842 18.6285 23.0766 14.6465 28.0005 14.6465C32.9244 14.6465 36.9168 18.6285 36.9168 23.5396V37.2225Z" fill="#292927"/>
<path d="M22.85 31.723C22.85 32.1065 22.5378 32.4178 22.1534 32.4178C21.7689 32.4178 21.4568 32.1065 21.4568 31.723V16.1737C21.4568 15.7902 21.7689 15.4789 22.1534 15.4789C22.5378 15.4789 22.85 15.7902 22.85 16.1737V31.723Z" fill="#9B9B9A"/>
<path d="M26.7475 29.3176C26.7475 29.701 26.4353 30.0124 26.0509 30.0124C25.6664 30.0124 25.3542 29.701 25.3542 29.3176V13.7682C25.3542 13.3848 25.6664 13.0734 26.0509 13.0734C26.4353 13.0734 26.7475 13.3848 26.7475 13.7682V29.3176Z" fill="#9B9B9A"/>
<path d="M30.6444 29.3176C30.6444 29.701 30.3323 30.0124 29.9478 30.0124C29.5634 30.0124 29.2512 29.701 29.2512 29.3176V13.7682C29.2512 13.3848 29.5634 13.0734 29.9478 13.0734C30.3323 13.0734 30.6444 13.3848 30.6444 13.7682V29.3176Z" fill="#9B9B9A"/>
<path d="M34.5431 31.723C34.5431 32.1065 34.231 32.4178 33.8465 32.4178C33.4621 32.4178 33.1499 32.1065 33.1499 31.723V16.1737C33.1499 15.7902 33.4621 15.4789 33.8465 15.4789C34.231 15.4789 34.5431 15.7902 34.5431 16.1737V31.723Z" fill="#9B9B9A"/>
<path d="M18.6194 29.1782V37.5796C18.6194 42.7464 22.8188 46.9365 28.0006 46.9365C33.1825 46.9365 37.3802 42.7464 37.3802 37.5796V29.1782H18.6194Z" fill="#E74E1B"/>
<g style="mix-blend-mode:multiply">
<path d="M34.3177 29.1783V35.4266C34.3177 40.5933 30.1183 44.7834 24.9381 44.7834C23.6007 44.7834 22.3307 44.5032 21.1807 44.0001C22.891 45.8059 25.3127 46.935 28.0006 46.935C33.1808 46.935 37.3802 42.7449 37.3802 37.5782V29.1767H34.3177V29.1783Z" fill="#C6C6C5"/>
</g>
<path d="M38.0227 28.6227H17.9771V30.104H38.0227V28.6227Z" fill="#9B9B9A"/>
<path opacity="0.2" d="M22.9878 38.4334C22.9878 39.0971 22.4473 39.6362 21.7819 39.6362C21.1148 39.6362 20.5759 39.0971 20.5759 38.4334V31.9541C20.5759 31.2905 21.1165 30.7513 21.7819 30.7513C22.4489 30.7513 22.9878 31.2905 22.9878 31.9541V38.4334Z" fill="white"/>
<path d="M48.9401 33.3208H46.4182V20.8849C46.4182 10.7563 38.1558 2.51542 28.0007 2.51542C17.3281 2.51542 9.58157 11.3643 9.58157 23.556V32.9702H7.06128V23.556C7.06128 16.8391 9.22505 10.7793 13.1533 6.49084C16.9913 2.30567 22.2635 6.10352e-05 28.0007 6.10352e-05C39.5473 6.10352e-05 48.9401 9.36835 48.9401 20.8849V33.3208Z" fill="#706F6F"/>
<path d="M10.0645 20.3801C10.0513 20.3801 10.0382 20.3801 10.025 20.3801C4.4883 20.3801 -0.000244141 24.8569 -0.000244141 30.3776C-0.000244141 35.8983 4.4883 40.3768 10.025 40.3768C10.0382 40.3768 10.0513 40.3768 10.0645 40.3768V20.3801Z" fill="#9B9B9A"/>
<g style="mix-blend-mode:multiply">
<path d="M0.798408 27.5903C0.798408 27.1397 0.831267 26.6972 0.888771 26.263C0.318667 27.5182 -0.00170898 28.9111 -0.00170898 30.3793C-0.00170898 35.9017 4.48683 40.3785 10.0236 40.3785C10.0367 40.3785 10.0499 40.3785 10.063 40.3785V37.5584C4.88114 37.1716 0.796765 32.8587 0.796765 27.5903H0.798408Z" fill="#C6C6C5"/>
</g>
<path d="M10.4456 19.3428H15.4369C16.375 19.3428 17.1357 20.1015 17.1357 21.0372V40.5964C17.1357 41.5304 16.375 42.2907 15.4369 42.2907H10.4456C9.50751 42.2907 8.74683 41.532 8.74683 40.5964V21.0372C8.74683 20.1031 9.50751 19.3428 10.4456 19.3428Z" fill="#3C3C3B"/>
<path opacity="0.2" d="M7.70359 23.5084C8.34598 24.5342 6.78846 24.5014 5.57104 25.2585C4.35525 26.0155 3.94123 27.2773 3.29884 26.2499C2.65644 25.2224 3.1214 23.7771 4.33882 23.02C5.55461 22.263 7.06284 22.4809 7.70359 23.5084Z" fill="white"/>
<path d="M45.9351 20.3801C45.9482 20.3801 45.9613 20.3801 45.9745 20.3801C51.5112 20.3801 55.9998 24.8569 55.9998 30.3792C55.9998 35.9016 51.5112 40.3784 45.9745 40.3784C45.9613 40.3784 45.9482 40.3784 45.9351 40.3784V20.3817V20.3801Z" fill="#9B9B9A"/>
<g style="mix-blend-mode:multiply">
<path d="M55.2014 27.5903C55.2014 27.1396 55.1685 26.6972 55.111 26.2629C55.6811 27.5182 56.0015 28.911 56.0015 30.3793C56.0015 35.9016 51.5129 40.3785 45.9762 40.3785C45.9631 40.3785 45.9499 40.3785 45.9368 40.3785V37.5583C51.1186 37.1716 55.203 32.8586 55.203 27.5903H55.2014Z" fill="#C6C6C5"/>
</g>
<path d="M40.5645 19.3428H45.5558C46.4923 19.3428 47.2546 20.1015 47.2546 21.0372V40.5964C47.2546 41.5304 46.4939 42.2907 45.5558 42.2907H40.5645C39.6264 42.2907 38.8657 41.532 38.8657 40.5964V21.0372C38.8657 20.1031 39.6264 19.3428 40.5645 19.3428Z" fill="#3C3C3B"/>
<path opacity="0.2" d="M48.2962 23.5083C47.6538 24.5341 49.213 24.5013 50.4287 25.2584C51.6445 26.0155 52.0585 27.2773 52.7009 26.2498C53.3433 25.2224 52.8784 23.7771 51.6609 23.02C50.4452 22.2629 48.9369 22.4809 48.2962 23.5083Z" fill="white"/>
</g>
<defs>
<clipPath id="clip0_227_1291">
<rect width="56" height="60" fill="white"/>
</clipPath>
</defs>
</svg>
