<svg width="43" height="60" viewBox="0 0 43 60" fill="none" xmlns="http://www.w3.org/2000/svg">
<path d="M3.00659 7.50287C3.00659 3.35914 6.36574 0 10.5095 0H31.5798C35.7235 0 39.0826 3.35915 39.0826 7.50288V39H3.00659V7.50287Z" fill="#FE6A4A"/>
<path d="M3.00659 7.50287C3.00659 3.35914 6.36574 0 10.5095 0H21.0446V39H3.00659V7.50287Z" fill="#FF7F63"/>
<path d="M0 26.501C0 25.1197 1.11972 24 2.50096 24H6.51805C7.89929 24 9.01901 25.1197 9.01901 26.501V30H0V26.501Z" fill="#DB3939"/>
<path d="M6.01318 45H36.0765V36H6.01318V45Z" fill="#E54545"/>
<path d="M21.0449 45H36.0766V36H21.0449V45Z" fill="#DB3939"/>
<path d="M0 42.499C0 43.8803 1.11972 45 2.50096 45H9.01901V30H0V42.499Z" fill="#394668"/>
<path d="M0 42.499C0 43.8803 1.11972 45 2.50096 45H6.01267V30H0V42.499Z" fill="#4F5D80"/>
<path d="M3.00659 45H39.0826V46.7495C39.0826 47.4401 38.5228 48 37.8322 48H4.25707C3.56645 48 3.00659 47.4401 3.00659 46.7495V45Z" fill="#BAC6E1"/>
<path d="M21.0449 45H39.0829V46.7495C39.0829 47.4401 38.5231 48 37.8325 48H21.0449V45Z" fill="#9CABCC"/>
<path d="M33.0699 26.501C33.0699 25.1197 34.1897 24 35.5709 24H39.588C40.9692 24 42.089 25.1197 42.089 26.501V30H33.0699V26.501Z" fill="#DB3939"/>
<path d="M33.0699 26.501C33.0699 25.1197 34.1897 24 35.5709 24H39.0826V30H33.0699V26.501Z" fill="#EA4141"/>
<path d="M0 26.501C0 25.1197 1.11972 24 2.50096 24H6.01267V30H0V26.501Z" fill="#EA4141"/>
<path d="M33.0699 45H39.588C40.9692 45 42.089 43.8803 42.089 42.499V30H33.0699V45Z" fill="#394668"/>
<path d="M33.0699 45H39.0826V30H33.0699V45Z" fill="#4F5D80"/>
<rect x="18.0383" y="47.9999" width="6.01267" height="12" fill="#E2E6F1"/>
<rect x="18.0383" y="47.9999" width="3.00634" height="12" fill="#EDF1FB"/>
<rect x="12.0255" y="57" width="18.038" height="3" rx="1.5" fill="#BAC6E1"/>
</svg>
