<svg width="57" height="60" viewBox="0 0 57 60" fill="none" xmlns="http://www.w3.org/2000/svg">
<path d="M2.23169 21.8184H56.7765V56.9684C56.7765 58.6427 55.4193 59.9999 53.745 59.9999H5.26315C3.58892 59.9999 2.23169 58.6427 2.23169 56.9684V21.8184Z" fill="#FEC353"/>
<path d="M56.7761 56.9685C56.7761 58.6427 55.4191 59.9998 53.7449 59.9998H29.5017V25.4548H56.7761V56.9685Z" fill="#FF9E39"/>
<path d="M2.2316 19.7679C2.2316 17.5733 3.66215 15.635 5.75928 14.9882L49.5737 1.47417C52.2135 0.659965 55.0135 2.13988 55.8277 4.77965L56.497 6.94954L2.23159 23.9998L2.2316 19.7679Z" fill="#4E5E82"/>
<path d="M39.1022 4.70497L44.5868 3.01332L39.1686 12.3951L33.6617 14.1254L39.1022 4.70497Z" fill="#E2E6F1"/>
<path d="M26.637 8.54967L32.1216 6.85802L26.6528 16.3276L21.1459 18.0579L26.637 8.54967Z" fill="#E2E6F1"/>
<path d="M13.8459 12.4949L19.3312 10.8031L13.9031 20.3336L8.39587 22.064L13.8459 12.4949Z" fill="#E2E6F1"/>
<path d="M46.0112 10.2452L51.041 1.53577C52.377 1.682 53.6266 2.27575 54.583 3.20779L51.5181 8.51492L46.0112 10.2452Z" fill="#E2E6F1"/>
<rect x="2.23169" y="21.8184" width="54.5448" height="7.27268" fill="#3E4466"/>
<path d="M56.7758 23.2637L49.9515 29.0908H44.3519L52.8685 21.8184H56.7758V23.2637Z" fill="#CED6E7"/>
<path d="M37.3944 29.0908H31.7948L40.3114 21.8184H45.912L37.3944 29.0908Z" fill="#CED6E7"/>
<path d="M24.6669 29.0908H19.0673L27.5839 21.8184H33.1844L24.6669 29.0908Z" fill="#CED6E7"/>
<path d="M10.832 29.0908H5.23242L13.749 21.8184H19.3496L10.832 29.0908Z" fill="#CED6E7"/>
<rect x="9.50623" y="36.3638" width="39.9995" height="1.81817" rx="0.909085" fill="white"/>
<rect x="9.50623" y="50.9087" width="39.9995" height="1.81817" rx="0.909085" fill="white"/>
<rect x="18.5974" y="36.3638" width="1.81816" height="16.3635" rx="0.909079" fill="white"/>
<rect x="38.593" y="36.3638" width="1.81816" height="16.3635" rx="0.909079" fill="white"/>
</svg>
