<svg width="60" height="60" viewBox="0 0 60 60" fill="none" xmlns="http://www.w3.org/2000/svg">
<g clip-path="url(#clip0_227_1224)">
<path d="M19.4273 0.0813088C18.9879 1.25701 17.5339 1.8902 16.9695 3.0065C14.1663 2.9596 14.2257 2.85954 14.2773 5.69874L9.2446 10.7314C8.46601 10.6501 7.48261 10.7408 6.66962 10.7314C5.42356 10.7158 4.17125 10.7314 2.92519 10.7314H0V3.24101C0.590979 1.60722 1.76668 0.292373 3.5834 0.0953797C8.86312 0.0625475 14.1475 0.089126 19.4257 0.0813088H19.4273ZM6.16932 3.03151C5.81755 3.10969 5.56271 3.4255 5.50799 3.77415C5.41418 4.37763 5.42513 6.30222 5.49861 6.92916C5.53144 7.21371 5.70654 7.62489 5.97076 7.74371C6.20528 7.84846 9.24147 7.86566 9.66204 7.80938C9.89186 7.77967 10.1389 7.67492 10.2389 7.44979C10.3562 7.18244 10.3562 4.22442 10.303 3.7632C10.2436 3.24883 10.0607 3.06278 9.54165 3.00181C8.95849 2.93458 6.68526 2.91426 6.17088 3.02839L6.16932 3.03151Z" fill="#595959"/>
<path d="M10.2983 22.3164C10.5672 22.3649 10.6829 22.293 10.8908 22.1476C11.5334 21.6989 13.2907 19.4538 13.7691 19.2912C13.8582 19.2615 13.952 19.2709 14.0427 19.274C14.0583 19.8775 14.0224 20.4872 14.0427 21.0923C14.0505 21.3174 13.9239 21.5613 14.2772 21.4972C14.2819 24.3239 14.0208 27.84 14.271 30.5729C14.321 31.1108 14.5836 31.5814 15.1606 31.672C16.3628 31.8612 18.4594 31.672 19.7758 31.6783C19.9322 31.6783 20.0885 31.6783 20.2433 31.6783C20.6717 31.6798 21.1032 31.6783 21.53 31.6783C21.4315 32.0848 21.6457 32.5413 21.6363 32.8962C21.6269 33.2511 21.297 33.7921 21.3049 34.0797C21.3158 34.505 21.7192 34.4503 21.2736 35.11C20.828 35.7698 19.9056 35.6213 19.188 35.6572C19.1332 35.1272 19.0598 34.7895 18.4938 34.6551C17.9278 34.5206 15.8829 34.5331 15.2653 34.6003C14.3538 34.7004 14.2522 35.3133 14.2725 36.1247L10.2936 36.242C10.2748 35.5384 10.4687 34.7598 9.52592 34.6097C9.02719 34.53 6.62262 34.5253 6.16297 34.6285C5.54385 34.7661 5.52665 35.2695 5.49382 35.7745L-0.00634766 36.009V31.6783H2.91884C4.1649 31.6783 5.41721 31.6892 6.66327 31.6783C7.36526 31.672 9.49153 31.8206 9.93711 31.5001C10.0763 31.4 10.1732 31.2562 10.2389 31.0998C10.3405 28.1746 10.2842 25.2416 10.292 22.3164H10.2983Z" fill="#4E4E4E"/>
<path d="M2.92519 10.7298H0V31.6783H2.92519V10.7298Z" fill="#E9F1FE"/>
<path d="M5.50002 38.3495C5.55943 39.0718 5.61259 39.3423 6.37242 39.408C6.9337 39.4564 9.4477 39.4987 9.86358 39.3783C10.3154 39.2485 10.2748 38.817 10.2982 38.4668L14.3944 38.3495C14.4132 38.7091 14.3225 39.1547 14.7478 39.3423C14.9729 39.4408 18.3437 39.4658 18.6407 39.3783C19.0316 39.2641 19.1551 38.7029 19.1926 38.3495L23.1715 38.4668C23.2059 38.8952 23.2122 39.261 23.7234 39.3783C24.3097 39.5127 26.2296 39.4471 26.916 39.4033C27.0442 39.8926 26.6377 40.2319 26.572 40.6384C26.4845 41.1872 26.6205 41.8766 26.5642 42.4457H21.8833C21.9818 41.2012 21.9677 40.5743 20.6466 40.2288C14.2068 40.3882 7.64662 39.9927 1.2209 40.2163C0.998891 40.2241 0.778446 40.2053 0.583016 40.3382C0.558001 40.2944 0.401658 40.235 0.325049 40.0756C0.181213 39.7738 0.192157 39.4283 -0.00170898 39.1688V38.9343L0.0795897 38.8404L-0.00170898 38.6997V38.4652L5.49846 38.348L5.50002 38.3495Z" fill="#2D2D2D"/>
<path d="M57.9299 51.8076C58.2128 55.1393 56.4071 58.2818 53.2786 59.5028L51.6104 59.9985H49.3872C47.0265 59.4043 45.3395 58.385 44.1216 56.254L47.6331 55.6693C49.7421 57.6564 53.6898 56.7231 54.5372 53.9136C55.8755 53.8088 56.5712 52.9145 57.4608 52.0968C57.6047 51.964 57.7016 51.8045 57.9314 51.806L57.9299 51.8076Z" fill="#4E4289"/>
<path d="M33.0023 53.9135C32.1925 56.2539 30.812 58.4615 28.4011 59.4355C27.8008 59.6778 27.1723 59.7873 26.5657 59.9999H24.3425C21.8222 59.3558 19.9711 58.1738 18.8423 55.7865C19.9023 55.4753 21.1015 55.641 22.1192 55.2017C22.7415 55.5613 23.2277 56.1804 23.9579 56.465C25.8074 57.1842 28.1119 56.4509 29.1406 54.7343L33.0023 53.915V53.9135Z" fill="#4E4289"/>
<path d="M5.50017 35.7745C5.4517 36.514 5.4392 37.6178 5.50017 38.3495L0 38.4667V36.009L5.50017 35.7745Z" fill="#464646"/>
<path d="M0 38.9345V38.6996L0.0814118 38.8406L0 38.9345Z" fill="#464646"/>
<path d="M18.2562 54.1481C16.9773 46.9375 23.2733 45.4585 28.4592 43.2275C28.8891 43.0664 29.4879 43.1524 29.8757 43.3776C29.9007 43.3916 30.2587 43.6887 30.3119 43.7325C30.7684 44.1218 31.2687 44.819 31.7158 45.2537C31.4501 45.2099 31.3578 45.3397 31.1843 45.4835C29.9929 46.4716 28.9736 47.9115 27.7369 48.8824C27.6712 48.8418 26.3923 48.4665 26.2438 48.4447C23.2795 48.01 20.6561 50.7257 21.4175 53.6806L18.2578 54.1481H18.2562Z" fill="#8E5FC7"/>
<path d="M21.8849 42.4456C15.5436 42.4456 9.13974 42.6066 2.83128 42.2486C1.70404 41.864 1.16153 41.334 0.586182 40.3396C0.781611 40.2067 1.00206 40.2255 1.22406 40.2177C7.64979 39.9925 14.21 40.3896 20.6498 40.2302C21.9693 40.5757 21.9834 41.2026 21.8864 42.4471L21.8849 42.4456Z" fill="#212121"/>
<path d="M29.1408 37.1784C30.118 38.8622 31.0451 40.6148 31.9487 42.3283V42.4456H26.5658C26.6205 41.8765 26.4845 41.1886 26.5736 40.6383C26.6393 40.2318 27.0458 39.8909 26.9176 39.4031C27.1599 39.3875 27.4398 39.4328 27.6587 39.2953C28.3075 38.8888 27.7196 36.1465 28.0886 35.4242C28.442 35.9995 28.8031 36.5968 29.1424 37.1799L29.1408 37.1784Z" fill="#212121"/>
<path d="M31.9486 42.4456H32.0658C32.1549 42.5394 32.7115 43.2883 32.7678 43.3821C32.8647 43.5432 32.7271 44.0263 33.1805 44.0904C33.8731 43.8293 34.7799 44.2014 35.3412 43.7339C35.4272 43.8089 35.7055 43.8699 35.9259 44.0857C36.1839 44.3374 36.4309 44.7126 36.6686 44.9815C36.8921 45.2364 37.3471 45.2739 37.2127 45.8414H34.7549C34.7487 46.4089 35.7368 46.1854 35.5742 46.7779C35.0442 46.8498 34.5751 47.2876 34.2875 47.7144C33.8341 47.2313 33.254 46.6919 32.7662 46.1932C32.76 44.9815 31.7391 44.1185 31.0105 43.268C31.2388 43.0491 31.4983 42.6973 31.7125 42.4487H31.947L31.9486 42.4456Z" fill="#B0C9EC"/>
<path d="M21.4158 53.6804C21.5362 54.1494 22.0443 54.6778 22.1178 55.2016C21.1 55.6425 19.9008 55.4767 18.8408 55.7863C18.561 55.1953 18.3765 54.8295 18.2561 54.1478L21.4158 53.6804Z" fill="#6D50A7"/>
<path d="M32.768 46.1901C32.46 45.8743 32.0363 45.5678 31.7143 45.2536C31.2671 44.8174 30.7653 44.1217 30.3103 43.7324C30.5636 43.6917 30.8325 43.4369 31.0123 43.2649C31.7393 44.1154 32.7618 44.9784 32.768 46.1901Z" fill="#D5E8FB"/>
<path d="M54.4186 46.3073C53.9151 47.0203 53.0771 47.5706 52.5409 48.2335C52.4002 48.407 52.2657 48.4977 52.3111 48.7651C49.2999 47.458 46.0526 49.8563 46.3419 53.0958C45.2709 53.4835 44.2015 53.7915 43.0649 53.915C42.6162 52.9254 41.2232 50.2675 41.0981 49.3779C41.0012 48.6853 41.3576 48.185 41.7782 47.7129C42.3004 47.1266 43.0696 46.4262 43.6512 45.8399C44.2656 45.2192 45.1333 44.2655 45.7571 43.7339C46.2637 43.3024 46.8312 43.01 47.5207 43.1992C49.7642 44.3155 52.3017 44.9815 54.417 46.3089L54.4186 46.3073Z" fill="#8E5FC7"/>
<path d="M31.7142 45.2536C32.0363 45.5663 32.4584 45.8743 32.768 46.1901C33.2557 46.6888 33.8358 47.2282 34.2892 47.7113C34.6988 48.1475 35.0177 48.6166 34.9677 49.2576C34.8755 50.4192 33.3402 52.6768 33.0025 53.9135L29.1408 54.7327C30.329 52.7503 29.5692 50.3598 27.7775 49.07C27.7227 49.0309 27.7462 48.887 27.7368 48.8808C28.9751 47.9114 29.9929 46.47 31.1842 45.4819C31.3577 45.338 31.45 45.2083 31.7158 45.252L31.7142 45.2536Z" fill="#6D50A7"/>
<path d="M39.4391 43.615C39.6674 44.3779 40.6883 45.7475 41.4841 45.8413C42.1564 45.921 42.9615 45.7788 43.651 45.8382C43.071 46.4245 42.3002 47.1233 41.778 47.7112C41.3277 47.4501 41.0917 46.8685 40.5429 46.7809C39.7174 46.6496 36.4232 46.659 35.5759 46.7747C35.7385 46.1837 34.7504 46.4057 34.7566 45.8382H37.2143C37.3488 45.2706 36.8938 45.2331 36.6703 44.9783C36.4326 44.7094 36.1856 44.3341 35.9276 44.0824C36.6796 44.4436 37.4707 44.5108 38.2697 44.2591C38.4135 44.2138 39.3609 43.69 39.4376 43.6134L39.4391 43.615Z" fill="#89A8DA"/>
<path d="M46.3432 53.0943C46.4292 54.0464 46.8982 54.7046 47.5174 55.3769C47.6034 55.4707 47.6112 55.6505 47.6299 55.6693L44.1185 56.254C43.6494 55.4348 43.4399 54.739 43.0647 53.9135C44.2013 53.79 45.2707 53.482 46.3417 53.0943H46.3432Z" fill="#6D50A7"/>
<path d="M35.2256 0.0811392C34.6612 1.19743 33.2072 1.83062 32.7679 3.00633C32.3067 3.06887 32.0112 3.36123 31.9487 3.82557C31.7376 3.8412 31.5844 3.93188 31.4218 4.05852C30.4962 4.78396 28.8312 6.4709 27.9697 7.33548C27.8759 6.23952 28.0963 4.95124 27.9728 3.88029C27.9103 3.33934 27.6336 3.06418 27.0957 3.0032C26.4938 2.93441 24.2628 2.91878 23.7281 3.0376C23.3419 3.12359 23.2122 3.40188 23.1731 3.7646C23.0902 4.5385 23.098 6.14884 23.1684 6.93212C23.22 7.49808 23.3263 7.73572 23.9329 7.80608C25.0398 7.93428 26.3719 7.70758 27.5038 7.80451C27.4804 7.82797 27.4632 8.02965 27.3365 8.15942C26.5611 8.94739 25.4979 9.74943 25.0461 10.7313C23.5264 10.736 22.0021 10.7235 20.4824 10.7313C18.9628 10.7391 16.9616 10.5687 15.5076 10.7313C14.7602 10.8141 14.3444 11.0627 14.274 11.8382C14.0113 14.7415 14.274 18.4984 14.2803 21.4987C13.9269 21.5643 14.0536 21.3189 14.0457 21.0937C14.0254 20.4887 14.0614 19.8789 14.0457 19.2754C13.9551 19.2723 13.8613 19.2629 13.7721 19.2926C13.2937 19.4552 11.5364 21.7003 10.8939 22.149C10.6859 22.2944 10.5702 22.3648 10.3013 22.3179C10.3091 18.7126 10.2966 15.1026 10.2982 11.4958C10.1153 11.0189 9.73848 10.7844 9.24756 10.7328L14.2803 5.70013C14.2912 6.28329 14.1052 7.57156 14.8306 7.78263C15.1652 7.87956 17.9903 7.87174 18.4406 7.81233C18.7407 7.77325 18.9956 7.58876 19.1066 7.30734C19.2504 6.94463 19.2676 3.98504 19.1425 3.58636C18.8908 2.78276 17.6495 3.01884 16.9709 3.00789C17.5353 1.8916 18.9893 1.25841 19.4287 0.0827026C24.6927 0.073322 29.9631 0.0764489 35.2272 0.0827026L35.2256 0.0811392Z" fill="#535353"/>
<path d="M6.67094 10.7297V31.6782C5.42489 31.6892 4.17257 31.6782 2.92651 31.6782V10.7297C4.17257 10.7297 5.42645 10.7141 6.67094 10.7297Z" fill="#E1EEFD"/>
<path d="M9.24441 10.7298C9.73533 10.7814 10.1121 11.0159 10.295 11.4928C10.295 15.0996 10.306 18.7096 10.2982 22.3149C10.2919 25.2401 10.3466 28.1731 10.245 31.0983C10.1809 31.2562 10.0824 31.3984 9.94327 31.4985C9.49769 31.819 7.37142 31.6705 6.66943 31.6767V10.7298C7.48086 10.7392 8.46426 10.6485 9.24441 10.7298Z" fill="#D5E8FB"/>
<path d="M16.9692 3.00643C17.6462 3.01737 18.8891 2.78129 19.1408 3.5849C19.2659 3.98358 19.2487 6.94316 19.1049 7.30588C18.9939 7.5873 18.739 7.77022 18.4389 7.81087C17.9886 7.87028 15.1635 7.8781 14.8289 7.78116C14.1034 7.5701 14.2879 6.28183 14.2786 5.69867C14.227 2.85947 14.166 2.96109 16.9708 3.00643H16.9692Z" fill="#FDFDFE"/>
<path d="M6.16904 3.03144C6.68341 2.91731 8.95665 2.93607 9.53981 3.00486C10.0573 3.06584 10.2402 3.25188 10.3012 3.76626C10.3544 4.22747 10.3559 7.18549 10.2371 7.45284C10.137 7.67797 9.89002 7.78272 9.6602 7.81243C9.23963 7.86715 6.20344 7.85151 5.96892 7.74676C5.70314 7.62794 5.5296 7.21676 5.49676 6.93221C5.42328 6.30371 5.41234 4.38069 5.50615 3.7772C5.56087 3.42855 5.81571 3.11274 6.16748 3.03457L6.16904 3.03144Z" fill="#FDFDFE"/>
<path d="M20.4794 10.7297V20.3261C20.8311 20.3027 20.9281 20.0353 21.322 20.1182C22.0303 20.2651 22.6557 20.792 23.17 21.2626C24.13 22.1413 25.1478 23.2513 26.0952 24.1878C27.8588 25.9295 29.602 27.7055 31.3609 29.4535C31.4484 29.541 31.5063 29.7177 31.5954 29.8052L29.4347 36.8329L29.1377 37.1784C28.8 36.5952 28.4372 35.998 28.0839 35.4227C27.9151 35.1475 27.9307 34.9599 27.6164 34.8379C27.6289 34.6191 27.543 34.4361 27.446 34.247C26.9942 33.3636 26.3454 32.5225 25.8607 31.6767C24.6193 29.5144 23.3326 27.3069 22.1163 25.1227C21.6769 24.3348 20.9484 23.1841 20.595 22.4305C20.5153 22.2617 20.3574 21.8364 20.3512 21.6675C20.3449 21.4987 20.5059 21.0516 20.4778 21.0281C20.1276 20.7248 19.9196 21.5519 19.8931 21.7879C19.5866 24.4802 19.8727 27.8056 19.7821 30.5698C19.7696 30.9528 19.5632 31.2811 19.7758 31.6767C18.4578 31.6689 16.3628 31.8596 15.1605 31.6704C14.5836 31.5797 14.3194 31.1091 14.2709 30.5713C14.0192 27.8384 14.2819 24.3223 14.2772 21.4956C14.2725 18.4953 14.0083 14.7384 14.2709 11.8351C14.3413 11.0596 14.7572 10.8126 15.5045 10.7282C16.9569 10.5656 18.955 10.7376 20.4794 10.7282V10.7297Z" fill="#E9F1FE"/>
<path d="M19.1926 35.6572C19.2598 36.3248 19.2614 37.6818 19.1926 38.3494C19.1566 38.7027 19.0331 39.264 18.6407 39.3782C18.3437 39.4641 14.9729 39.4407 14.7478 39.3422C14.3209 39.1546 14.4132 38.7106 14.3944 38.3494C14.3553 37.6287 14.2944 36.8219 14.2772 36.1262C14.2568 35.3148 14.3569 34.7019 15.2699 34.6019C15.8875 34.5331 17.9419 34.5237 18.4984 34.6566C19.055 34.7895 19.1395 35.1287 19.1926 35.6587V35.6572Z" fill="#FDFDFE"/>
<path d="M10.2982 36.2419C10.317 36.9439 10.3451 37.774 10.2982 38.4651C10.2748 38.8153 10.3154 39.2468 9.86358 39.3766C9.44771 39.497 6.9337 39.4547 6.37243 39.4063C5.6126 39.3406 5.55944 39.0701 5.50003 38.3478C5.44062 37.6255 5.45156 36.5124 5.50003 35.7728C5.53286 35.2694 5.55006 34.766 6.16918 34.6268C6.62883 34.5237 9.0334 34.5299 9.53213 34.6081C10.4749 34.7582 10.2795 35.5368 10.2998 36.2403L10.2982 36.2419Z" fill="#FDFDFE"/>
<path d="M21.885 31.6783C22.4291 31.6783 22.9794 31.6783 23.5235 31.6783V32.3802C23.9347 32.4803 23.708 31.9597 23.758 31.6783H24.6945V34.6034C24.2208 34.5863 23.3687 34.5722 23.1967 35.1538C23.0763 35.5618 23.1279 37.9117 23.1733 38.4651L19.1943 38.3479C19.2631 37.6819 19.2616 36.3232 19.1943 35.6556C19.912 35.6197 20.8406 35.7604 21.28 35.1084C21.7193 34.4565 21.3222 34.5034 21.3112 34.0781C21.3034 33.7905 21.6317 33.262 21.6427 32.8946C21.6536 32.5272 21.4379 32.0832 21.5364 31.6767H21.8881L21.885 31.6783ZM23.8737 33.201C23.4391 33.1041 23.7064 33.7717 23.6408 34.0187C24.0754 34.1157 23.808 33.4481 23.8737 33.201Z" fill="#464646"/>
<path d="M22.1178 25.1243C22.0083 25.5214 21.8989 26.1875 21.8817 26.5908C21.8661 26.9364 21.8848 27.3272 21.8848 27.6399V30.3321C21.8848 30.3665 21.7863 30.4541 21.7863 30.562C21.7863 30.8825 21.9771 31.3046 21.8848 31.6783H21.533C21.1047 31.6783 20.6732 31.6798 20.2463 31.6783L20.5981 22.4337C20.9514 23.1872 21.68 24.3379 22.1193 25.1259L22.1178 25.1243Z" fill="#D5E8FB"/>
<path d="M14.277 36.1247C14.2942 36.8204 14.3552 37.6272 14.3943 38.3479L10.2981 38.4652C10.345 37.7741 10.3169 36.9424 10.2981 36.242L14.277 36.1247Z" fill="#464646"/>
<path d="M19.7772 31.6782C19.5645 31.2827 19.7694 30.9543 19.7834 30.5713C19.8757 27.8071 19.5896 24.4817 19.8944 21.7895C19.921 21.5534 20.1289 20.7248 20.4792 21.0297C20.5073 21.0547 20.3463 21.4956 20.3525 21.6691C20.3588 21.8426 20.5167 22.2632 20.5964 22.4321L20.2446 31.6767C20.0883 31.6767 19.932 31.6767 19.7772 31.6767V31.6782Z" fill="#E1EEFD"/>
<path d="M59.9185 10.7298H55.9395C54.7341 10.7298 53.5177 10.7048 52.3123 10.7298C51.4384 10.747 49.6983 10.4203 49.6138 11.6007L49.631 31.0279C49.7671 31.9879 51.5306 31.6642 52.3123 31.6783C53.5193 31.6986 54.7341 31.6783 55.9395 31.6783H59.9185C59.9106 33.6998 59.981 35.7448 59.9185 37.7632L54.4183 37.4114C54.4386 36.8126 54.5684 35.1882 54.1291 34.8333C53.7304 34.5097 51.232 34.5394 50.6098 34.5972C49.1964 34.727 49.592 36.3858 49.6201 37.5287L45.5239 36.8267C45.5067 35.9371 45.8507 34.8318 44.7359 34.6301C44.184 34.53 41.2166 34.4972 40.9493 34.9131C40.7898 35.1617 40.8555 35.5994 40.843 35.8902C39.5312 35.6104 38.3274 35.0131 37.0735 34.566C36.864 34.4909 36.6467 34.5285 36.5138 34.4862C35.8931 34.2908 34.1812 32.263 33.5886 31.6783H38.9715C40.9712 31.6783 42.9755 31.6986 44.9736 31.6549C45.9288 31.1233 45.6255 29.9366 45.6412 28.9876C45.7443 23.1404 45.6083 17.2744 45.588 11.4271C45.4598 11.0159 44.9157 10.7955 44.5186 10.7408C42.9114 10.5235 40.4505 10.7408 38.7355 10.7298C38.6901 10.4625 38.8246 10.3734 38.9653 10.1983C39.6188 9.3884 40.7007 8.73957 41.1932 7.80308C42.3454 7.68894 43.7682 7.95473 44.886 7.80933C45.4285 7.73897 45.5849 7.29496 45.6412 6.80873C45.6927 6.35221 45.7287 3.93201 45.6412 3.59118L48.9181 0.0812621C50.9631 0.0890792 55.8864 -0.258004 57.5233 0.429908C59.1602 1.11782 59.8168 2.80164 59.9247 4.46514C60.0529 6.46008 59.9091 8.70362 59.92 10.7314L59.9185 10.7298ZM50.0547 3.03147C49.7874 3.10808 49.6482 3.38949 49.6138 3.64433C49.5607 4.04457 49.5779 7.40284 49.6764 7.57169C49.7264 7.65611 49.8687 7.72021 49.9641 7.75148C50.333 7.87187 53.1722 7.87499 53.6616 7.80933C53.9602 7.77024 54.215 7.58888 54.3276 7.30434C54.484 6.91192 54.4808 4.41354 54.4183 3.88041C54.3558 3.34728 54.0821 3.06586 53.5412 3.00332C53.0472 2.94548 50.4253 2.92359 50.0532 3.0299L50.0547 3.03147Z" fill="#464646"/>
<path d="M48.9183 0.0811666L45.6413 3.59264C45.5662 3.29872 45.0706 3.04075 44.7658 3.00479C44.0763 2.92349 42.2924 2.92506 41.6014 3.00479C41.0635 3.06733 40.7868 3.34093 40.7243 3.88188C40.6617 4.42283 40.6602 6.91964 40.815 7.30737C40.8869 7.4856 41.1167 7.61849 41.1949 7.80611C40.7024 8.74104 39.6205 9.38987 38.967 10.2013C38.8263 10.3748 38.6918 10.4655 38.7372 10.7329C37.5302 10.7266 36.317 10.736 35.11 10.7329C31.758 10.7235 28.3982 10.7235 25.0461 10.7329C25.498 9.75102 26.5611 8.94898 27.3366 8.16101C27.4632 8.03124 27.4804 7.82956 27.5039 7.80611C27.6586 7.64976 27.8166 7.49342 27.9713 7.33864C28.8328 6.47249 30.4978 4.78555 31.4234 4.06168C31.586 3.93504 31.7392 3.84279 31.9503 3.82872C31.8612 4.48849 31.8705 6.37556 31.9487 7.0494C32.0097 7.5669 32.1957 7.74982 32.7101 7.8108C33.4543 7.89678 35.1147 7.88271 35.8776 7.81392C36.4436 7.76233 36.6812 7.65602 36.7516 7.0494C36.8094 6.55379 36.8048 3.60828 36.639 3.3253C36.5483 3.17052 36.1809 3.02668 35.9933 3.00479C35.3523 2.92506 33.4058 2.92506 32.7711 3.00948C33.2104 1.83378 34.6644 1.20059 35.2288 0.0842935C39.7909 0.0889838 44.3593 0.0655322 48.9214 0.0842935L48.9183 0.0811666Z" fill="#4E4E4E"/>
<path d="M59.9184 10.7298C59.9559 17.709 59.9465 24.6991 59.9184 31.6783H55.9395V10.7298H59.9184Z" fill="#D5E8FB"/>
<path d="M49.6201 37.5301C49.6326 38.0335 49.4387 39.106 49.9734 39.3421C50.222 39.4516 53.2426 39.4641 53.6631 39.4093C54.5965 39.2874 54.3964 38.0867 54.4183 37.4144L59.9185 37.7662C59.859 39.672 59.5667 41.0682 57.6952 41.9796C57.7359 41.3871 56.296 40.9149 55.8504 40.8399C53.8273 40.4991 51.5353 40.5069 49.4591 40.2098C48.066 40.0097 46.5214 39.5188 45.1721 39.4062C45.7256 38.8168 45.538 37.6458 45.5239 36.8312L49.6201 37.5332V37.5301Z" fill="#2D2D2D"/>
<path d="M45.1736 39.4018C46.5229 39.5159 48.0676 40.0068 49.4606 40.2054C51.5368 40.5024 53.8288 40.4946 55.8519 40.8355C56.2975 40.9105 57.7358 41.3842 57.6968 41.9752C57.1464 42.2441 56.6242 42.3989 56.0036 42.4474L44.3544 42.4427L41.4292 39.5175V39.4002C42.6456 39.4753 43.9729 39.2986 45.1736 39.4002V39.4018Z" fill="#212121"/>
<path d="M57.9299 51.8075C57.7 51.8044 57.6047 51.9654 57.4593 52.0983C56.5697 52.916 55.8739 53.8102 54.5356 53.915C55.1204 51.9748 54.2167 49.5937 52.3124 48.765C52.2671 48.4977 52.4015 48.4086 52.5423 48.2335C53.0769 47.5706 53.9165 47.0202 54.4199 46.3073C56.3445 47.5143 57.7344 49.4873 57.9314 51.8075H57.9299Z" fill="#6D50A7"/>
<path d="M40.7257 38.8169C40.7648 38.8559 40.8039 38.895 40.843 38.9341C40.9993 39.0905 41.1557 39.2468 41.3105 39.4016C41.3496 39.4407 41.3886 39.4798 41.4277 39.5188L44.3529 42.444C44.5624 42.6535 44.8814 42.9897 44.9376 43.2633C44.5468 43.4087 43.5352 43.4806 43.1835 43.3196C42.8317 43.1585 41.9655 42.122 41.62 41.7827C41.4731 41.6404 41.2229 41.5357 41.076 41.3903C40.6444 40.9635 40.2895 40.4569 39.7892 39.9863C38.7589 39.0185 37.9882 38.29 36.395 38.8153L37.3315 35.5383C38.4275 36.6562 39.6173 37.7084 40.7257 38.8153V38.8169Z" fill="#D5E8FB"/>
<path d="M41.0776 41.3918C41.2246 41.5372 41.4747 41.6419 41.6217 41.7842C41.9688 42.1235 42.8177 43.1522 43.1851 43.3211C43.5525 43.4899 44.5469 43.4086 44.9393 43.2648L45.7585 43.7322C45.1347 44.2638 44.267 45.2175 43.6526 45.8382C42.9631 45.7788 42.1579 45.9211 41.4856 45.8413C40.6899 45.7475 39.6689 44.3779 39.4407 43.615C39.7174 43.3383 40.102 42.3924 40.1427 41.9765C40.5601 41.9577 40.7587 41.5903 41.0792 41.3918H41.0776Z" fill="#B0C9EC"/>
<path d="M24.6926 34.6035C24.7098 34.6035 24.824 34.7223 24.9756 34.7254C25.7292 34.7411 26.9737 34.5863 27.6178 34.838C27.9321 34.9615 27.9164 35.1476 28.0853 35.4227C27.7179 36.145 28.3057 38.8873 27.6554 39.2938C27.4365 39.4314 27.1551 39.386 26.9143 39.4017C26.2264 39.4454 24.3065 39.5111 23.7217 39.3766C23.2105 39.2594 23.2058 38.8935 23.1699 38.4652C23.1245 37.9117 23.0745 35.5619 23.1933 35.1538C23.3637 34.5706 24.2174 34.5847 24.6911 34.6035H24.6926Z" fill="#FDFDFE"/>
<path d="M33.587 31.6782C34.1796 32.263 35.8931 34.2923 36.5122 34.4862C36.6326 34.8458 37.0485 35.2507 37.3315 35.5399L36.395 38.8169C34.5861 39.4141 33.9451 41.5435 34.8737 43.1476C34.3406 43.0257 33.3197 43.2508 32.7678 43.3821C32.7115 43.2883 32.1549 42.5394 32.0658 42.4456C32.0283 42.405 31.9908 42.3643 31.9486 42.3284C31.0449 40.6148 30.1178 38.8622 29.1406 37.1784L29.4377 36.8329L31.5983 29.8052C32.2394 30.4416 32.9445 31.0419 33.5886 31.6782H33.587Z" fill="#E1EEFD"/>
<path d="M32.0657 42.4454H31.9487V42.3284C31.9908 42.3643 32.0267 42.4048 32.0657 42.4454Z" fill="#2D2D2D"/>
<path d="M39.7892 39.9879C40.0769 40.6648 40.2145 41.2277 40.141 41.9781C40.1004 42.394 39.7157 43.3399 39.439 43.6166C39.3624 43.6932 38.415 44.2169 38.2711 44.2623C37.4722 44.514 36.6811 44.4468 35.9291 44.0856C35.7087 43.8714 35.4288 43.8105 35.3444 43.7339C35.285 43.6823 35.2162 43.2273 34.8769 43.1491C33.9482 41.5466 34.5908 39.4156 36.3981 38.8184C37.9913 38.2931 38.7605 39.0217 39.7924 39.9894L39.7892 39.9879Z" fill="#ECB45B"/>
<path d="M34.8738 43.1475C35.2146 43.2257 35.2834 43.6807 35.3412 43.7323C34.78 44.2013 33.8732 43.8276 33.1806 44.0887C32.7272 44.0246 32.8648 43.5415 32.7678 43.3805C33.3197 43.2507 34.3422 43.024 34.8738 43.146V43.1475Z" fill="#D5E8FB"/>
<path d="M25.0445 10.7296C28.3965 10.7203 31.7564 10.7203 35.1084 10.7296L34.9974 23.6718C34.2735 23.7108 33.5762 23.7015 32.857 23.5733C30.3712 23.1277 27.7602 22.2678 25.3041 21.6471C24.613 21.472 23.8923 21.2844 23.1731 21.2625C22.6572 20.7903 22.0318 20.265 21.3251 20.1181C20.9311 20.0368 20.8342 20.3026 20.4824 20.326V10.7296C22.0005 10.7218 23.5264 10.7343 25.0461 10.7296H25.0445Z" fill="#E1EEFD"/>
<path d="M27.9698 7.33561C27.815 7.49195 27.6571 7.64673 27.5023 7.80307C26.3704 7.70614 25.0368 7.9344 23.9315 7.80464C23.3248 7.73428 23.2185 7.49664 23.1669 6.93068C23.0966 6.14739 23.0888 4.53705 23.1716 3.76315C23.2107 3.40044 23.3405 3.12214 23.7266 3.03615C24.2613 2.91733 26.4924 2.93297 27.0943 3.00176C27.6321 3.0643 27.9088 3.3379 27.9714 3.87885C28.0949 4.94824 27.8744 6.23807 27.9682 7.33404L27.9698 7.33561Z" fill="#FDFDFE"/>
<path d="M32.7678 3.00637C33.4041 2.92039 35.349 2.92039 35.99 3.00168C36.1761 3.02514 36.5435 3.16741 36.6357 3.32219C36.8015 3.60517 36.8061 6.54912 36.7483 7.04629C36.6779 7.65291 36.4403 7.75922 35.8743 7.81082C35.1129 7.87961 33.4526 7.89368 32.7068 7.80769C32.1924 7.74828 32.0064 7.56536 31.9454 7.04629C31.8672 6.37245 31.8594 4.48539 31.947 3.82562C32.0095 3.36127 32.305 3.06891 32.7662 3.00637H32.7678Z" fill="#FDFDFE"/>
<path d="M38.7371 10.7298C40.4506 10.7392 42.913 10.5219 44.5203 10.7407C44.9174 10.7939 45.4615 11.0159 45.5897 11.4271C45.6084 17.2743 45.7444 23.1404 45.6428 28.9876L26.0983 24.1894C25.1493 23.2514 24.133 22.1429 23.1731 21.2642C23.8923 21.2861 24.613 21.4753 25.3041 21.6488C27.7618 22.2695 30.3712 23.1294 32.857 23.575C33.5762 23.7032 34.2735 23.7126 34.9974 23.6735L35.1084 10.7314C36.3153 10.7345 37.5286 10.7251 38.7355 10.7314L38.7371 10.7298Z" fill="#D5E8FB"/>
<path d="M45.6411 28.9861C45.6239 29.9367 45.9288 31.1218 44.9735 31.6533C42.9739 31.6987 40.9696 31.6783 38.9715 31.6768C39.0293 31.3688 38.3195 31.2765 38.096 31.2062C36.223 30.6199 33.9466 29.8069 32.072 29.3895C31.861 29.3426 31.5155 29.23 31.3638 29.4536C29.6049 27.7057 27.8601 25.9296 26.0981 24.1879L45.6427 28.9861H45.6411Z" fill="#B0C9EC"/>
<path d="M25.8638 31.6781H23.5234C22.9793 31.6781 22.429 31.6781 21.8849 31.6781C21.9771 31.3045 21.7848 30.8823 21.7864 30.5618C21.7864 30.454 21.8849 30.368 21.8849 30.332V27.6398C21.8849 27.3271 21.8661 26.9362 21.8818 26.5907C21.9005 26.1873 22.01 25.5198 22.1178 25.1242C23.3358 27.3083 24.6209 29.5159 25.8623 31.6781H25.8638Z" fill="#B0C9EC"/>
<path d="M31.364 29.4551C31.5157 29.2315 31.8612 29.3441 32.0723 29.391C33.9452 29.8084 36.2216 30.6214 38.0962 31.2077C38.3197 31.278 39.0295 31.3703 38.9717 31.6783H33.5888C32.9446 31.0435 32.2411 30.4432 31.5985 29.8053C31.511 29.7177 31.4531 29.541 31.364 29.4535V29.4551Z" fill="#89A8DA"/>
<path d="M25.8638 31.6783C26.3485 32.5242 26.9973 33.3637 27.4491 34.2486C27.546 34.4362 27.6305 34.6207 27.6195 34.8396C26.9754 34.5879 25.7293 34.7427 24.9773 34.727C24.8257 34.7239 24.7115 34.6067 24.6943 34.6051V31.6799H25.8654L25.8638 31.6783Z" fill="#2D2D2D"/>
<path d="M23.8735 33.2011C23.8079 33.4482 24.0752 34.1157 23.6406 34.0188C23.7063 33.7718 23.4389 33.1042 23.8735 33.2011Z" fill="#2D2D2D"/>
<path d="M23.7561 31.6783C23.7061 31.9582 23.9328 32.4788 23.5232 32.3803V31.6783H23.7561Z" fill="#2D2D2D"/>
<path d="M55.9397 10.7298V31.6783C54.7327 31.6783 53.5179 31.6986 52.3125 31.6783V10.7298C53.5179 10.7048 54.7343 10.7298 55.9397 10.7298Z" fill="#E1EEFD"/>
<path d="M52.3123 10.7296V31.6781C51.5305 31.6656 49.767 31.9877 49.631 31.0277L49.6138 11.6005C49.6982 10.4201 51.4383 10.7468 52.3123 10.7296Z" fill="#E9F1FE"/>
<path d="M45.6412 3.59109C45.7287 3.93192 45.6928 6.35212 45.6412 6.80864C45.5865 7.29487 45.4286 7.73889 44.886 7.80924C43.7697 7.95464 42.347 7.69042 41.1932 7.80299C41.1135 7.61694 40.8836 7.48248 40.8133 7.30425C40.6585 6.91652 40.6616 4.40877 40.7226 3.87876C40.7836 3.34876 41.0619 3.06265 41.5997 3.00167C42.2907 2.92194 44.0746 2.92037 44.7641 3.00167C45.069 3.03763 45.5646 3.2956 45.6396 3.58953L45.6412 3.59109Z" fill="#FDFDFE"/>
<path d="M50.0547 3.03147C50.4284 2.92515 53.0503 2.94704 53.5428 3.00489C54.0837 3.06743 54.3589 3.34415 54.4198 3.88198C54.4808 4.4198 54.4855 6.91348 54.3292 7.3059C54.2166 7.59045 53.9618 7.77024 53.6631 7.81089C53.1722 7.87499 50.333 7.87186 49.9656 7.75304C49.8702 7.72177 49.7264 7.65611 49.6779 7.57325C49.5779 7.4044 49.5623 4.04614 49.6154 3.6459C49.6482 3.39106 49.789 3.10964 50.0563 3.03303L50.0547 3.03147Z" fill="#FDFDFE"/>
<path d="M54.4184 37.4128C54.3965 38.0851 54.5967 39.2858 53.6633 39.4078C53.2427 39.4625 50.2222 39.45 49.9736 39.3405C49.4389 39.1045 49.6328 38.0319 49.6202 37.5285C49.5921 36.3856 49.1965 34.7268 50.6099 34.5971C51.2321 34.5392 53.7305 34.5095 54.1292 34.8332C54.5685 35.1881 54.4388 36.8125 54.4184 37.4113V37.4128Z" fill="#FDFDFE"/>
<path d="M45.5239 36.8283C45.5395 37.6428 45.7271 38.8138 45.1721 39.4033C43.9714 39.3016 42.644 39.4783 41.4277 39.4033H41.3104C41.1541 39.2469 40.9977 39.0906 40.843 38.9358V38.8185C40.8742 37.8476 40.7992 36.8627 40.843 35.8933C40.8555 35.6025 40.7914 35.1663 40.9493 34.9162C41.2151 34.4988 44.1825 34.5331 44.7359 34.6332C45.8506 34.8349 45.5083 35.9387 45.5239 36.8298V36.8283Z" fill="#89A8DA"/>
<path d="M40.8429 35.8917C40.7991 36.861 40.8742 37.846 40.8429 38.8169H40.7257C39.6188 37.71 38.429 36.6578 37.3314 35.5399C37.0485 35.2507 36.6326 34.8473 36.5122 34.4861C36.6451 34.5284 36.8624 34.4908 37.0719 34.5659C38.3258 35.013 39.5296 35.6103 40.8414 35.8901L40.8429 35.8917Z" fill="#2D2D2D"/>
<path d="M41.4275 39.5187C41.3885 39.4797 41.3495 39.4407 41.3105 39.4017H41.4275V39.5187Z" fill="#2D2D2D"/>
<path d="M39.7892 39.988C40.291 40.4585 40.6459 40.9667 41.0759 41.3919C40.7554 41.592 40.5584 41.9579 40.1394 41.9766C40.2128 41.2278 40.0753 40.6634 39.7876 39.9864L39.7892 39.988Z" fill="#89A8DA"/>
<path d="M40.8428 38.9339C40.8038 38.8949 40.7648 38.8559 40.7258 38.817H40.8428V38.9339Z" fill="#464646"/>
</g>
<defs>
<clipPath id="clip0_227_1224">
<rect width="59.9781" height="60" fill="white"/>
</clipPath>
</defs>
</svg>
