<svg width="60" height="60" viewBox="0 0 60 60" fill="none" xmlns="http://www.w3.org/2000/svg">
<g clip-path="url(#clip0_227_1327)">
<path d="M27.8063 21.5063C27.3427 21.0338 26.7202 20.7502 26.0595 20.7103C25.3987 20.6705 24.7467 20.8773 24.2297 21.2906L20.9953 23.7L16.6875 20.4891C16.0696 20.0475 15.3442 19.7803 14.5875 19.7156C15.2253 18.6628 15.6059 17.4744 15.6985 16.2469C15.7219 16.0547 15.75 15.8578 15.7781 15.6609C15.9703 14.2875 16.1906 12.7359 15.1219 11.3438C14.7361 10.8003 14.2388 10.3452 13.6634 10.009C13.0879 9.67274 12.4473 9.463 11.7844 9.39375C11.6578 9.37969 11.475 9.375 11.2875 9.375C11.0672 9.375 10.8375 9.38437 10.6922 9.39844C10.033 9.4697 9.39631 9.67993 8.82425 10.0152C8.25219 10.3506 7.75772 10.8034 7.37346 11.3438C6.3094 12.7359 6.52971 14.2875 6.7219 15.6609C6.75002 15.8578 6.77815 16.0547 6.80159 16.2469C6.90176 17.464 7.28197 18.6416 7.91252 19.6875H7.75784C7.0079 19.7088 6.27923 19.9414 5.65563 20.3585C5.03203 20.7756 4.53886 21.3603 4.23284 22.0453L2.60627 25.6875C2.44427 26.047 2.35467 26.4348 2.3426 26.8289C2.33054 27.223 2.39624 27.6157 2.53596 27.9844L3.24846 29.8875C3.3872 30.2243 3.59481 30.5284 3.85797 30.7802C4.12112 31.0321 4.43402 31.2262 4.77659 31.35V34.7625L1.33596 39.5953C1.24256 39.7234 1.18438 39.8737 1.16721 40.0312L0.0234611 49.6688C-0.0297448 50.1092 0.00456589 50.5558 0.124423 50.9829C0.244281 51.4101 0.447325 51.8093 0.721899 52.1578C0.970309 52.476 1.27999 52.7412 1.63263 52.9376C1.98528 53.1341 2.37373 53.2578 2.77502 53.3016C3.53614 53.3677 4.29499 53.1515 4.907 52.6942C5.51902 52.237 5.94143 51.5705 6.09377 50.8219L8.00159 42.3703L11.5688 40.1953L15.6891 43.5375L21.0235 52.9359C21.2634 53.3683 21.6136 53.7292 22.0385 53.982C22.4635 54.2348 22.9478 54.3704 23.4422 54.375C23.62 54.3739 23.7973 54.3566 23.9719 54.3234C24.3956 54.2341 24.793 54.0485 25.1336 53.7811C25.4741 53.5137 25.7487 53.1716 25.936 52.7812C26.1403 52.3607 26.2469 51.8994 26.2477 51.4318C26.2485 50.9642 26.1435 50.5025 25.9407 50.0812L18.2906 34.4203V29.3953L19.5938 30.0234C20.0148 30.21 20.478 30.2805 20.9354 30.2277C21.3928 30.175 21.8278 30.0009 22.1953 29.7234L27.6141 25.5C27.9033 25.2596 28.1393 24.9617 28.3071 24.6252C28.475 24.2888 28.571 23.921 28.5891 23.5454C28.6072 23.1698 28.5469 22.7946 28.4121 22.4435C28.2774 22.0925 28.071 21.7733 27.8063 21.5063ZM8.86409 12.4828C9.09247 12.1455 9.39142 11.8618 9.74025 11.6513C10.0891 11.4409 10.4795 11.3088 10.8844 11.2641C10.9641 11.2547 11.1188 11.25 11.2688 11.25C11.4 11.25 11.5313 11.2547 11.6016 11.2594C12.0094 11.3027 12.4028 11.4346 12.7542 11.6459C13.1056 11.8573 13.4066 12.1429 13.636 12.4828C14.2219 13.2516 14.0813 14.2453 13.9219 15.3984C13.8891 15.6047 13.861 15.8156 13.8375 16.0219C13.5422 18.4172 12.8578 19.4391 11.3813 19.6734C11.3412 19.682 11.3004 19.6867 11.2594 19.6875H11.2547C11.2219 19.6875 11.1891 19.6828 11.1422 19.6781C9.68909 19.4578 8.94846 18.3656 8.66252 16.0219C8.63909 15.8156 8.61096 15.6047 8.57815 15.3984C8.41877 14.2453 8.27346 13.2516 8.86409 12.4828ZM24.2532 50.9062C24.333 51.0698 24.3745 51.2493 24.3745 51.4313C24.3745 51.6132 24.333 51.7927 24.2532 51.9562C24.1911 52.0877 24.1004 52.2035 23.9876 52.2952C23.8748 52.3868 23.7429 52.452 23.6016 52.4859C23.4139 52.5184 23.2207 52.49 23.0504 52.4048C22.88 52.3196 22.7414 52.1821 22.6547 52.0125L17.236 42.4594C17.1767 42.3582 17.1006 42.2679 17.011 42.1922L12.2344 38.3203C12.0838 38.1991 11.8994 38.1273 11.7065 38.1147C11.5135 38.1021 11.3214 38.1493 11.1563 38.25L6.68909 40.9734C6.58224 41.0396 6.48955 41.1263 6.41634 41.2285C6.34313 41.3307 6.29086 41.4463 6.26252 41.5687L4.26565 50.4094C4.21415 50.7092 4.05451 50.9798 3.81696 51.1698C3.5794 51.3598 3.28041 51.4562 2.97659 51.4406C2.8218 51.4225 2.67227 51.3732 2.53696 51.2959C2.40164 51.2186 2.28333 51.1148 2.18909 50.9906C1.94602 50.6781 1.83648 50.2821 1.8844 49.8891L3.00002 40.4859L5.79377 36.5625H17.25L24.2532 50.9062ZM26.4422 24.0422L21.0235 28.2609C20.9319 28.3154 20.8301 28.3502 20.7243 28.3632C20.6186 28.3761 20.5113 28.3668 20.4094 28.3359L17.761 27.0563C17.618 26.9879 17.4601 26.9568 17.3019 26.9658C17.1437 26.9748 16.9904 27.0237 16.8561 27.1079C16.7219 27.1921 16.6111 27.3089 16.5341 27.4474C16.4571 27.5858 16.4163 27.7415 16.4156 27.9V34.6875H6.65159V31.4953L12.3281 31.5469C12.6671 31.5493 13.0032 31.4849 13.3172 31.3573C13.6312 31.2297 13.917 31.0414 14.1581 30.8033C14.3993 30.5651 14.5912 30.2818 14.7227 29.9694C14.8543 29.657 14.9229 29.3218 14.9248 28.9828C14.9266 28.6439 14.8616 28.3079 14.7335 27.9941C14.6054 27.6803 14.4166 27.3949 14.1781 27.1541C13.9395 26.9134 13.6558 26.722 13.3432 26.591C13.0306 26.46 12.6952 26.3919 12.3563 26.3906H7.55627C7.30763 26.3906 7.06918 26.4894 6.89336 26.6652C6.71755 26.841 6.61877 27.0795 6.61877 27.3281C6.61877 27.5768 6.71755 27.8152 6.89336 27.991C7.06918 28.1669 7.30763 28.2656 7.55627 28.2656H12.3563C12.448 28.2661 12.5388 28.2846 12.6234 28.3203C12.708 28.3559 12.7847 28.4078 12.8491 28.4732C12.9136 28.5385 12.9645 28.6159 12.999 28.7009C13.0335 28.786 13.0508 28.877 13.05 28.9688C13.0504 29.0618 13.0324 29.1541 12.997 29.2401C12.9616 29.3262 12.9095 29.4045 12.8438 29.4703C12.7106 29.5995 12.5324 29.6717 12.3469 29.6719L5.4844 29.6063C5.38319 29.58 5.28849 29.5332 5.20621 29.4686C5.12394 29.4041 5.05588 29.3233 5.00627 29.2313L4.29377 27.3281C4.1864 27.0442 4.19481 26.7294 4.31721 26.4516L5.93909 22.8188C6.09845 22.4556 6.35732 22.1449 6.68579 21.9226C7.01426 21.7003 7.39892 21.5754 7.79534 21.5625H14.2031C14.6961 21.5603 15.1769 21.7146 15.5766 22.0031L20.4375 25.6172C20.5992 25.7382 20.7957 25.8035 20.9977 25.8035C21.1996 25.8035 21.3961 25.7382 21.5578 25.6172L25.3828 22.7719C25.5389 22.6428 25.7376 22.5769 25.9399 22.5873C26.1421 22.5977 26.3331 22.6837 26.475 22.8281C26.5553 22.9086 26.6183 23.0045 26.6603 23.11C26.7023 23.2156 26.7224 23.3286 26.7193 23.4422C26.7162 23.5558 26.6901 23.6675 26.6424 23.7707C26.5948 23.8738 26.5267 23.9662 26.4422 24.0422Z" fill="#2D4356"/>
<path d="M13.9218 15.3984C13.889 15.6047 13.8609 15.8156 13.8375 16.0219C13.5422 18.4172 12.8578 19.4391 11.3812 19.6734C11.3411 19.682 11.3003 19.6867 11.2593 19.6875H11.2547C11.2218 19.6875 11.189 19.6828 11.1422 19.6781C9.68903 19.4578 8.9484 18.3656 8.66246 16.0219C8.63903 15.8156 8.6109 15.6047 8.57809 15.3984C8.41871 14.2453 8.2734 13.2516 8.86403 12.4828C9.09241 12.1455 9.39136 11.8618 9.74019 11.6513C10.089 11.4409 10.4794 11.3088 10.8843 11.2641C10.964 11.2547 11.1187 11.25 11.2687 11.25C11.4 11.25 11.5312 11.2547 11.6015 11.2594C12.0093 11.3027 12.4027 11.4346 12.7541 11.6459C13.1055 11.8573 13.4065 12.1429 13.6359 12.4828C14.2218 13.2516 14.0812 14.2453 13.9218 15.3984Z" fill="#E1EBF4"/>
<path d="M26.7187 23.4563C26.7143 23.5675 26.6875 23.6767 26.64 23.7774C26.5925 23.878 26.5252 23.9681 26.4422 24.0422L21.0234 28.261C20.9319 28.3155 20.83 28.3503 20.7243 28.3632C20.6186 28.3761 20.5113 28.3668 20.4094 28.336L17.7609 27.0563C17.618 26.9879 17.4601 26.9568 17.3019 26.9658C17.1437 26.9749 16.9903 27.0238 16.8561 27.1079C16.7218 27.1921 16.6111 27.3089 16.5341 27.4474C16.457 27.5859 16.4163 27.7416 16.4156 27.9V34.6875H6.65154V31.4953L12.3281 31.5469C12.667 31.5493 13.0031 31.4849 13.3171 31.3573C13.6312 31.2297 13.9169 31.0415 14.1581 30.8033C14.3993 30.5652 14.5911 30.2818 14.7227 29.9694C14.8542 29.657 14.9229 29.3218 14.9247 28.9829C14.9266 28.6439 14.8616 28.3079 14.7335 27.9942C14.6053 27.6804 14.4166 27.3949 14.178 27.1541C13.9394 26.9134 13.6557 26.722 13.3431 26.591C13.0305 26.46 12.6952 26.3919 12.3562 26.3906H7.55623C7.30759 26.3906 7.06913 26.4894 6.89332 26.6652C6.7175 26.8411 6.61873 27.0795 6.61873 27.3281C6.61873 27.5768 6.7175 27.8152 6.89332 27.9911C7.06913 28.1669 7.30759 28.2656 7.55623 28.2656H12.3562C12.448 28.2661 12.5388 28.2847 12.6233 28.3203C12.7079 28.3559 12.7846 28.4079 12.8491 28.4732C12.9135 28.5385 12.9645 28.6159 12.9989 28.7009C13.0334 28.786 13.0508 28.877 13.05 28.9688C13.0504 29.0618 13.0324 29.1541 12.997 29.2402C12.9616 29.3263 12.9095 29.4045 12.8437 29.4703C12.7106 29.5995 12.5324 29.6718 12.3469 29.6719L5.48436 29.6063C5.38315 29.58 5.28844 29.5332 5.20617 29.4687C5.1239 29.4041 5.05584 29.3233 5.00623 29.2313L4.29373 27.3281C4.18636 27.0442 4.19477 26.7294 4.31717 26.4516L5.93904 22.8188C6.09841 22.4556 6.35728 22.1449 6.68575 21.9226C7.01422 21.7003 7.39888 21.5755 7.79529 21.5625H14.2031C14.696 21.5604 15.1769 21.7146 15.5765 22.0031L20.4375 25.6172C20.5992 25.7382 20.7957 25.8035 20.9976 25.8035C21.1996 25.8035 21.3961 25.7382 21.5578 25.6172L25.3828 22.7719C25.5388 22.6428 25.7376 22.5769 25.9398 22.5873C26.1421 22.5978 26.3331 22.6837 26.475 22.8281C26.5575 22.9098 26.6218 23.008 26.6638 23.1162C26.7058 23.2245 26.7245 23.3403 26.7187 23.4563Z" fill="#FC785E"/>
<path d="M24.2532 51.9562C24.1911 52.0877 24.1004 52.2035 23.9876 52.2952C23.8749 52.3868 23.7429 52.452 23.6016 52.4859C23.4139 52.5184 23.2208 52.49 23.0504 52.4048C22.88 52.3196 22.7414 52.1821 22.6547 52.0125L17.236 42.4594C17.1767 42.3582 17.1006 42.2679 17.011 42.1922L12.2344 38.3203C12.0838 38.1991 11.8994 38.1273 11.7065 38.1147C11.5135 38.1021 11.3214 38.1493 11.1563 38.25L6.68912 40.9734C6.58228 41.0396 6.48958 41.1263 6.41638 41.2285C6.34317 41.3307 6.29089 41.4463 6.26256 41.5687L4.26569 50.4094C4.21419 50.7092 4.05455 50.9798 3.81699 51.1698C3.57944 51.3598 3.28045 51.4562 2.97662 51.4406C2.82184 51.4225 2.67231 51.3732 2.537 51.2959C2.40168 51.2186 2.28336 51.1148 2.18912 50.9906C1.94606 50.6781 1.83652 50.2821 1.88443 49.8891L3.00006 40.4859L5.79381 36.5625H17.2501L24.2532 50.9062C24.333 51.0698 24.3745 51.2493 24.3745 51.4312C24.3745 51.6132 24.333 51.7927 24.2532 51.9562Z" fill="#E1EBF4"/>
<path d="M23.0773 14.7878C23.2696 14.9454 23.5166 15.0201 23.7641 14.9956C24.0115 14.9711 24.2391 14.8494 24.3968 14.6571L27.0214 11.4557C27.1192 11.3364 27.186 11.1948 27.2159 11.0434C27.2459 10.8921 27.238 10.7357 27.1931 10.5881C27.1481 10.4405 27.0674 10.3063 26.9582 10.1974C26.849 10.0885 26.7145 10.0082 26.5668 9.96363L25.4089 9.61481L27.2402 7.117C27.313 7.01772 27.3655 6.90507 27.3948 6.78549C27.4241 6.66591 27.4295 6.54174 27.4108 6.42006C27.392 6.29838 27.3495 6.18159 27.2857 6.07634C27.2218 5.97109 27.1378 5.87945 27.0385 5.80665C26.9393 5.73385 26.8266 5.68132 26.707 5.65205C26.5875 5.62279 26.4633 5.61737 26.3416 5.63609C26.2199 5.65481 26.1031 5.69732 25.9979 5.76119C25.8926 5.82505 25.801 5.90902 25.7282 6.0083L23.1127 9.57545C23.024 9.69639 22.9656 9.83687 22.9424 9.98507C22.9193 10.1333 22.932 10.2849 22.9795 10.4271C23.0271 10.5694 23.1081 10.6982 23.2158 10.8026C23.3234 10.9071 23.4546 10.9842 23.5982 11.0275L24.6804 11.3536L22.9466 13.4683C22.789 13.6606 22.7142 13.9077 22.7387 14.1551C22.7632 14.4026 22.885 14.6301 23.0773 14.7878Z" fill="#2D4356"/>
<path d="M19.85 14.98C19.9705 15.0056 20.0948 15.0071 20.2159 14.9846C20.337 14.962 20.4524 14.9158 20.5556 14.8486C20.6588 14.7814 20.7477 14.6944 20.8173 14.5928C20.8869 14.4912 20.9357 14.3768 20.961 14.2563L21.7765 10.3932C21.8084 10.2424 21.8025 10.0861 21.7595 9.93808C21.7165 9.79007 21.6376 9.65495 21.53 9.54467C21.4223 9.43439 21.2891 9.35235 21.1421 9.30582C20.9952 9.25929 20.8391 9.24969 20.6875 9.27788L19.2055 9.55389L19.1818 9.42675L19.5772 6.69699C19.6128 6.45089 19.5492 6.20073 19.4004 6.00152C19.2516 5.80231 19.0298 5.67037 18.7837 5.63474C18.5376 5.59911 18.2874 5.6627 18.0882 5.81151C17.889 5.96033 17.757 6.18219 17.7214 6.42828L17.1188 10.5889C17.0975 10.7364 17.1116 10.8869 17.16 11.0278C17.2085 11.1687 17.2898 11.2961 17.3973 11.3994C17.5048 11.5026 17.6353 11.5787 17.7781 11.6214C17.9209 11.6641 18.0718 11.6722 18.2183 11.645L19.5481 11.3973L19.595 11.6493L19.1263 13.8691C19.075 14.1123 19.1225 14.366 19.2582 14.5744C19.3939 14.7827 19.6068 14.9286 19.85 14.98Z" fill="#2D4356"/>
<path d="M37.0203 10.4271C37.0678 10.2848 37.0805 10.1333 37.0573 9.98506C37.0342 9.83687 36.9758 9.6964 36.887 9.57545L34.2716 6.0083C34.1988 5.90902 34.1071 5.82505 34.0019 5.76119C33.8966 5.69732 33.7799 5.65481 33.6582 5.63609C33.5365 5.61737 33.4123 5.62279 33.2927 5.65205C33.1732 5.68132 33.0605 5.73385 32.9612 5.80665C32.862 5.87945 32.778 5.97109 32.7141 6.07634C32.6503 6.18159 32.6078 6.29838 32.589 6.42006C32.5703 6.54174 32.5757 6.66591 32.605 6.78549C32.6343 6.90507 32.6868 7.01772 32.7596 7.117L34.5909 9.61481L33.433 9.96363C33.2853 10.0082 33.1508 10.0885 33.0416 10.1974C32.9323 10.3063 32.8517 10.4405 32.8067 10.5881C32.7617 10.7357 32.7539 10.8921 32.7838 11.0434C32.8138 11.1948 32.8806 11.3364 32.9784 11.4557L35.603 14.6571C35.7607 14.8494 35.9882 14.9712 36.2357 14.9957C36.4832 15.0202 36.7302 14.9454 36.9225 14.7878C37.1148 14.6302 37.2366 14.4026 37.2612 14.1551C37.2857 13.9077 37.2109 13.6606 37.0532 13.4683L35.3194 11.3536L36.4016 11.0275C36.5452 10.9841 36.6763 10.907 36.784 10.8026C36.8916 10.6981 36.9726 10.5694 37.0203 10.4271Z" fill="#2D4356"/>
<path d="M39.3123 9.27787C39.1608 9.24967 39.0047 9.25927 38.8577 9.3058C38.7108 9.35234 38.5776 9.43437 38.4699 9.54465C38.3622 9.65493 38.2834 9.79005 38.2404 9.93806C38.1974 10.0861 38.1915 10.2424 38.2233 10.3932L39.0388 14.2563C39.0902 14.4996 39.2361 14.7125 39.4444 14.8483C39.6528 14.984 39.9065 15.0314 40.1498 14.98C40.3931 14.9287 40.6061 14.7828 40.7418 14.5744C40.8775 14.3661 40.9249 14.1123 40.8736 13.869L40.4049 11.6493L40.4518 11.3973L41.7815 11.645C41.9281 11.6722 42.079 11.6641 42.2217 11.6214C42.3645 11.5787 42.4951 11.5026 42.6026 11.3993C42.71 11.2961 42.7914 11.1687 42.8398 11.0278C42.8883 10.8869 42.9024 10.7364 42.8811 10.5889L42.2784 6.42827C42.2608 6.30642 42.2193 6.18924 42.1564 6.08341C42.0935 5.97759 42.0103 5.8852 41.9117 5.81151C41.813 5.73782 41.7008 5.68428 41.5815 5.65395C41.4622 5.62362 41.338 5.61709 41.2162 5.63474C41.0943 5.65238 40.9772 5.69385 40.8713 5.75678C40.7655 5.81971 40.6731 5.90287 40.5994 6.00151C40.5257 6.10015 40.4722 6.21234 40.4419 6.33167C40.4115 6.45099 40.405 6.57513 40.4227 6.69698L40.8181 9.42674L40.7944 9.55389L39.3123 9.27787Z" fill="#2D4356"/>
<path d="M59.9765 49.6688L58.8327 40.0313C58.8156 39.8737 58.7574 39.7234 58.664 39.5953L55.2234 34.7625V31.35C55.5659 31.2262 55.8788 31.0321 56.142 30.7803C56.4051 30.5284 56.6127 30.2243 56.7515 29.8875L57.464 27.9844C57.6037 27.6157 57.6694 27.2231 57.6573 26.829C57.6453 26.4348 57.5557 26.047 57.3937 25.6875L55.7624 22.0313C55.451 21.3447 54.9516 20.7602 54.3221 20.3455C53.6925 19.9307 52.9584 19.7026 52.2046 19.6875H52.0874C52.718 18.6416 53.0982 17.4641 53.1984 16.2469C53.2218 16.0547 53.2499 15.8578 53.278 15.6609C53.4702 14.2875 53.6905 12.7359 52.6218 11.3438C52.2394 10.8036 51.7466 10.3509 51.1761 10.0156C50.6056 9.6802 49.9703 9.46986 49.3124 9.39845C48.9475 9.36875 48.5807 9.36719 48.2155 9.39376C47.5686 9.4536 46.9429 9.65525 46.3827 9.98438C45.7966 10.334 45.2852 10.796 44.878 11.3438C43.8093 12.7359 44.0296 14.2875 44.2218 15.6609C44.2499 15.8578 44.278 16.0547 44.3015 16.2469C44.394 17.4744 44.7746 18.6628 45.4124 19.7156C44.6519 19.7831 43.9234 20.0534 43.303 20.4984L39.0046 23.7L35.803 21.3141C35.2453 20.8659 34.5325 20.6572 33.8211 20.7339C33.1097 20.8106 32.4577 21.1664 32.0083 21.7232C31.5589 22.28 31.3487 22.9923 31.4239 23.7039C31.4991 24.4155 31.8535 25.0682 32.4093 25.5188L37.7859 29.7047C38.1535 29.9886 38.591 30.1681 39.0522 30.2242C39.5134 30.2803 39.9811 30.211 40.4062 30.0234L41.7093 29.3953V34.4203L34.0593 50.0813C33.8564 50.5025 33.7515 50.9642 33.7523 51.4318C33.7531 51.8994 33.8596 52.3607 34.064 52.7813C34.2513 53.1716 34.5258 53.5137 34.8664 53.7811C35.2069 54.0485 35.6044 54.2341 36.028 54.3234C36.2027 54.3566 36.38 54.3739 36.5577 54.375C37.0521 54.3704 37.5365 54.2349 37.9614 53.982C38.3863 53.7292 38.7366 53.3683 38.9765 52.9359L44.3109 43.5375L48.4312 40.1953L51.9984 42.3703L53.9062 50.8219C54.0585 51.5705 54.4809 52.237 55.0929 52.6942C55.705 53.1515 56.4638 53.3677 57.2249 53.3016C57.6262 53.2578 58.0147 53.1341 58.3673 52.9376C58.72 52.7412 59.0296 52.476 59.278 52.1578C59.5526 51.8094 59.7557 51.4101 59.8755 50.983C59.9954 50.5558 60.0297 50.1092 59.9765 49.6688ZM46.364 12.4828C46.5934 12.1429 46.8943 11.8573 47.2458 11.6459C47.5972 11.4346 47.9906 11.3027 48.3984 11.2594C48.6372 11.2445 48.8769 11.2461 49.1155 11.2641C49.5205 11.3088 49.9109 11.4409 50.2597 11.6513C50.6085 11.8618 50.9075 12.1455 51.1359 12.4828C51.7265 13.2516 51.5812 14.2453 51.4218 15.3984C51.389 15.6047 51.3609 15.8156 51.3374 16.0219C51.0515 18.3656 50.3109 19.4578 48.853 19.6781C48.7754 19.6929 48.6956 19.6913 48.6187 19.6734C47.1421 19.4391 46.4577 18.4172 46.1624 16.0219C46.139 15.8156 46.1109 15.6047 46.078 15.3984C45.9187 14.2453 45.778 13.2516 46.364 12.4828ZM39.5905 28.3359C39.4846 28.3676 39.3731 28.3756 39.2637 28.3594C39.1544 28.3432 39.0499 28.3032 38.9577 28.2422L33.5812 24.0563C33.4964 23.9867 33.4263 23.901 33.3749 23.8041C33.3236 23.7072 33.292 23.601 33.2821 23.4918C33.2722 23.3825 33.2842 23.2724 33.3173 23.1679C33.3503 23.0633 33.4039 22.9664 33.4748 22.8827C33.5457 22.799 33.6326 22.7303 33.7303 22.6806C33.828 22.6308 33.9347 22.601 34.0441 22.5928C34.1534 22.5847 34.2633 22.5984 34.3673 22.6332C34.4714 22.668 34.5674 22.7231 34.6499 22.7953L38.4421 25.6172C38.6038 25.7382 38.8003 25.8035 39.0023 25.8035C39.2042 25.8035 39.4007 25.7382 39.5624 25.6172L44.4093 22.0125C44.8123 21.719 45.2982 21.5613 45.7968 21.5625H52.228C52.6189 21.5785 52.9974 21.7038 53.3206 21.9242C53.6438 22.1446 53.8986 22.4513 54.0562 22.8094L55.6827 26.4516C55.8051 26.7278 55.8135 27.0411 55.7062 27.3234L54.9937 29.2313C54.9441 29.3233 54.876 29.4041 54.7937 29.4686C54.7115 29.5332 54.6168 29.58 54.5155 29.6063L47.653 29.6719C47.4677 29.6709 47.2898 29.5987 47.1562 29.4703C47.0904 29.4045 47.0383 29.3262 47.0029 29.2402C46.9675 29.1541 46.9495 29.0618 46.9499 28.9688C46.9491 28.877 46.9665 28.786 47.001 28.7009C47.0354 28.6159 47.0864 28.5385 47.1508 28.4732C47.2153 28.4078 47.292 28.3559 47.3766 28.3203C47.4611 28.2847 47.5519 28.2661 47.6437 28.2656H52.4437C52.6923 28.2656 52.9308 28.1669 53.1066 27.991C53.2824 27.8152 53.3812 27.5768 53.3812 27.3281C53.3812 27.0795 53.2824 26.841 53.1066 26.6652C52.9308 26.4894 52.6923 26.3906 52.4437 26.3906H47.6437C47.3047 26.3919 46.9694 26.46 46.6568 26.591C46.3442 26.722 46.0605 26.9134 45.8219 27.1541C45.5833 27.3949 45.3946 27.6803 45.2664 27.9941C45.1383 28.3079 45.0733 28.6439 45.0752 28.9828C45.077 29.3218 45.1457 29.657 45.2772 29.9694C45.4088 30.2818 45.6006 30.5652 45.8418 30.8033C46.083 31.0415 46.3687 31.2297 46.6828 31.3573C46.9968 31.4849 47.3329 31.5493 47.6718 31.5469L53.3484 31.4953V34.6875H43.5843V27.9C43.5836 27.7416 43.5429 27.5858 43.4658 27.4474C43.3888 27.3089 43.2781 27.1921 43.1438 27.1079C43.0096 27.0237 42.8562 26.9749 42.698 26.9658C42.5398 26.9568 42.3819 26.9879 42.239 27.0563L39.5905 28.3359ZM57.8109 50.9906C57.7166 51.1148 57.5983 51.2186 57.463 51.2959C57.3277 51.3732 57.1781 51.4225 57.0234 51.4406C56.7197 51.4555 56.4211 51.3589 56.1836 51.169C55.9462 50.9791 55.7864 50.7089 55.7343 50.4094L53.7374 41.5688C53.7091 41.4463 53.6568 41.3307 53.5836 41.2285C53.5104 41.1263 53.4177 41.0396 53.3109 40.9734L48.8437 38.25C48.6786 38.1493 48.4864 38.102 48.2935 38.1146C48.1005 38.1272 47.9161 38.199 47.7655 38.3203L42.989 42.1922C42.8994 42.2678 42.8233 42.3582 42.764 42.4594L37.3452 52.0125C37.2586 52.1821 37.1199 52.3196 36.9496 52.4048C36.7792 52.49 36.586 52.5184 36.3984 52.4859C36.257 52.452 36.1251 52.3869 36.0124 52.2952C35.8996 52.2035 35.8088 52.0877 35.7468 51.9563C35.667 51.7928 35.6255 51.6132 35.6255 51.4313C35.6255 51.2493 35.667 51.0698 35.7468 50.9063L42.7499 36.5625H54.2062L56.9999 40.4859L58.1155 49.8891C58.1635 50.2821 58.0539 50.6781 57.8109 50.9906Z" fill="#2D4356"/>
<path d="M51.422 15.3985C51.3892 15.6047 51.361 15.8157 51.3376 16.0219C51.0517 18.3657 50.311 19.4578 48.8532 19.6782C48.7756 19.6929 48.6958 19.6913 48.6189 19.6735C47.1423 19.4391 46.4579 18.4172 46.1626 16.0219C46.1392 15.8157 46.111 15.6047 46.0782 15.3985C45.9189 14.2453 45.7782 13.2516 46.3642 12.4828C46.5936 12.1429 46.8945 11.8573 47.2459 11.646C47.5974 11.4346 47.9908 11.3027 48.3985 11.2594C48.6374 11.2446 48.8771 11.2461 49.1157 11.2641C49.5207 11.3088 49.911 11.4409 50.2599 11.6514C50.6087 11.8618 50.9077 12.1455 51.136 12.4828C51.7267 13.2516 51.5814 14.2453 51.422 15.3985Z" fill="#E1EBF4"/>
<path d="M57.8109 50.9906C57.7166 51.1148 57.5983 51.2186 57.463 51.2959C57.3277 51.3732 57.1781 51.4225 57.0234 51.4406C56.7197 51.4555 56.4211 51.3589 56.1836 51.169C55.9462 50.979 55.7864 50.7089 55.7343 50.4094L53.7374 41.5687C53.7091 41.4463 53.6568 41.3307 53.5836 41.2285C53.5104 41.1263 53.4177 41.0396 53.3109 40.9734L48.8437 38.25C48.6786 38.1493 48.4864 38.102 48.2935 38.1146C48.1005 38.1271 47.9161 38.199 47.7655 38.3203L42.989 42.1922C42.8994 42.2678 42.8233 42.3582 42.764 42.4594L37.3452 52.0125C37.2586 52.1821 37.1199 52.3196 36.9496 52.4048C36.7792 52.49 36.586 52.5184 36.3984 52.4859C36.257 52.452 36.1251 52.3868 36.0124 52.2952C35.8996 52.2035 35.8088 52.0877 35.7468 51.9562C35.667 51.7927 35.6255 51.6132 35.6255 51.4312C35.6255 51.2493 35.667 51.0698 35.7468 50.9062L42.7499 36.5625H54.2062L56.9999 40.4859L58.1155 49.8891C58.1635 50.2821 58.0539 50.6781 57.8109 50.9906Z" fill="#E1EBF4"/>
<path d="M55.7062 27.3234L54.9937 29.2313C54.9441 29.3233 54.876 29.4041 54.7938 29.4686C54.7115 29.5332 54.6168 29.58 54.5156 29.6063L47.6531 29.6719C47.4677 29.6709 47.2899 29.5987 47.1562 29.4703C47.0904 29.4045 47.0383 29.3262 47.0029 29.2402C46.9675 29.1541 46.9495 29.0618 46.95 28.9688C46.9492 28.877 46.9665 28.786 47.001 28.7009C47.0355 28.6159 47.0864 28.5385 47.1508 28.4732C47.2153 28.4078 47.292 28.3559 47.3766 28.3203C47.4612 28.2847 47.5519 28.2661 47.6437 28.2656H52.4437C52.6923 28.2656 52.9308 28.1669 53.1066 27.991C53.2824 27.8152 53.3812 27.5768 53.3812 27.3281C53.3812 27.0795 53.2824 26.841 53.1066 26.6652C52.9308 26.4894 52.6923 26.3906 52.4437 26.3906H47.6437C47.3048 26.3919 46.9694 26.46 46.6568 26.591C46.3442 26.722 46.0605 26.9134 45.8219 27.1541C45.5834 27.3949 45.3946 27.6803 45.2665 27.9941C45.1383 28.3079 45.0733 28.6439 45.0752 28.9828C45.077 29.3218 45.1457 29.657 45.2773 29.9694C45.4088 30.2818 45.6007 30.5651 45.8418 30.8033C46.083 31.0414 46.3688 31.2297 46.6828 31.3573C46.9968 31.4849 47.3329 31.5493 47.6718 31.5469L53.3484 31.4953V34.6875H43.5843V27.9C43.5836 27.7416 43.5429 27.5858 43.4659 27.4474C43.3889 27.3089 43.2781 27.1921 43.1439 27.1079C43.0096 27.0237 42.8563 26.9749 42.6981 26.9658C42.5399 26.9568 42.382 26.9879 42.239 27.0563L39.5906 28.3359C39.4847 28.3676 39.3731 28.3756 39.2638 28.3594C39.1544 28.3432 39.0499 28.3032 38.9578 28.2422L33.5812 24.0563C33.4964 23.9867 33.4263 23.901 33.375 23.8041C33.3236 23.7071 33.2921 23.601 33.2822 23.4918C33.2723 23.3825 33.2842 23.2724 33.3173 23.1679C33.3504 23.0633 33.4039 22.9664 33.4748 22.8827C33.5457 22.799 33.6326 22.7303 33.7303 22.6806C33.8281 22.6308 33.9347 22.601 34.0441 22.5928C34.1535 22.5847 34.2634 22.5984 34.3674 22.6332C34.4714 22.6679 34.5675 22.7231 34.65 22.7953L38.4421 25.6172C38.6038 25.7382 38.8004 25.8035 39.0023 25.8035C39.2042 25.8035 39.4008 25.7382 39.5625 25.6172L44.4093 22.0125C44.8123 21.719 45.2983 21.5613 45.7968 21.5625H52.2281C52.6189 21.5785 52.9975 21.7038 53.3207 21.9242C53.6438 22.1446 53.8987 22.4513 54.0562 22.8094L55.6828 26.4516C55.8051 26.7278 55.8135 27.0411 55.7062 27.3234Z" fill="#FFDB80"/>
<path opacity="0.5" d="M24.2532 51.9562C24.1911 52.0877 24.1004 52.2035 23.9876 52.2952C23.8749 52.3868 23.7429 52.452 23.6016 52.4859C23.4139 52.5184 23.2208 52.49 23.0504 52.4048C22.88 52.3196 22.7414 52.1821 22.6547 52.0125L17.236 42.4594C17.1767 42.3582 17.1006 42.2678 17.011 42.1922L12.2344 38.3203C12.0838 38.1991 11.8994 38.1272 11.7065 38.1147C11.5135 38.1021 11.3214 38.1493 11.1563 38.25L6.68912 40.9734C6.58228 41.0396 6.48959 41.1263 6.41638 41.2285C6.34317 41.3306 6.29089 41.4463 6.26256 41.5687L4.26569 50.4094C4.21419 50.7092 4.05455 50.9797 3.81699 51.1698C3.57944 51.3598 3.28045 51.4562 2.97662 51.4406C2.82184 51.4224 2.67231 51.3732 2.537 51.2959C2.40168 51.2186 2.28336 51.1147 2.18912 50.9906C1.94606 50.6781 1.83652 50.2821 1.88443 49.889L1.92662 49.5234C1.97753 49.7159 2.06682 49.896 2.18912 50.0531C2.28336 50.1772 2.40168 50.2811 2.537 50.3584C2.67231 50.4357 2.82184 50.4849 2.97662 50.5031C3.28045 50.5187 3.57944 50.4223 3.81699 50.2323C4.05455 50.0422 4.21419 49.7717 4.26569 49.4719L6.26256 40.6312C6.29089 40.5088 6.34317 40.3931 6.41638 40.291C6.48959 40.1888 6.58228 40.1021 6.68912 40.0359L11.1563 37.3125C11.3214 37.2118 11.5135 37.1646 11.7065 37.1772C11.8994 37.1897 12.0838 37.2616 12.2344 37.3828L17.011 41.2547C17.1006 41.3303 17.1767 41.4207 17.236 41.5218L22.6547 51.075C22.7414 51.2446 22.88 51.3821 23.0504 51.4672C23.2208 51.5524 23.4139 51.5809 23.6016 51.5484C23.7429 51.5145 23.8749 51.4493 23.9876 51.3576C24.1004 51.266 24.1911 51.1501 24.2532 51.0187C24.263 51.0009 24.2709 50.982 24.2766 50.9625C24.3447 51.12 24.3779 51.2904 24.3738 51.4619C24.3698 51.6335 24.3286 51.8021 24.2532 51.9562Z" fill="#9FA5AA"/>
<path opacity="0.5" d="M13.05 28.9687C13.0504 29.0618 13.0324 29.154 12.997 29.2401C12.9616 29.3262 12.9095 29.4044 12.8437 29.4703C12.7106 29.5994 12.5324 29.6717 12.3469 29.6718L5.48436 29.6062C5.38315 29.58 5.28844 29.5331 5.20617 29.4686C5.1239 29.4041 5.05584 29.3233 5.00623 29.2312L4.29373 27.3281C4.18636 27.0441 4.19477 26.7294 4.31717 26.4515L5.00623 28.2937C5.05584 28.3858 5.1239 28.4666 5.20617 28.5311C5.28844 28.5956 5.38315 28.6425 5.48436 28.6687L12.3469 28.7343C12.5324 28.7342 12.7106 28.6619 12.8437 28.5328C12.8542 28.5229 12.8637 28.5119 12.8719 28.5C12.9884 28.6281 13.0521 28.7956 13.05 28.9687Z" fill="#A54B3F"/>
<path opacity="0.5" d="M6.65161 33.75H16.4157V34.6875H6.65161V33.75Z" fill="#A54B3F"/>
<path opacity="0.3" d="M26.7187 23.4563C26.7106 23.6106 26.6603 23.7597 26.5734 23.8875C26.5447 23.8438 26.5117 23.803 26.475 23.7656C26.3331 23.6212 26.1421 23.5353 25.9398 23.5248C25.7376 23.5144 25.5388 23.5803 25.3828 23.7094L21.5578 26.5547C21.3961 26.6757 21.1996 26.741 20.9976 26.741C20.7957 26.741 20.5992 26.6757 20.4375 26.5547L15.5765 22.9406C15.1769 22.6521 14.696 22.4979 14.2031 22.5H7.79529C7.39888 22.513 7.01422 22.6378 6.68575 22.8601C6.35728 23.0824 6.09841 23.3931 5.93904 23.7563L4.31717 27.3891L4.29373 27.3281C4.18636 27.0442 4.19477 26.7294 4.31717 26.4516L5.93904 22.8188C6.09841 22.4556 6.35728 22.1449 6.68575 21.9226C7.01422 21.7003 7.39888 21.5755 7.79529 21.5625H14.2031C14.696 21.5604 15.1769 21.7146 15.5765 22.0031L20.4375 25.6172C20.5992 25.7382 20.7957 25.8035 20.9976 25.8035C21.1996 25.8035 21.3961 25.7382 21.5578 25.6172L25.3828 22.7719C25.5388 22.6428 25.7376 22.5769 25.9398 22.5873C26.1421 22.5978 26.3331 22.6837 26.475 22.8281C26.5575 22.9098 26.6218 23.008 26.6638 23.1162C26.7058 23.2245 26.7245 23.3403 26.7187 23.4563Z" fill="#F9DBD7"/>
<path opacity="0.5" d="M13.9218 15.3984C13.889 15.6047 13.8608 15.8156 13.8374 16.0219C13.5421 18.4172 12.8577 19.439 11.3812 19.6734C11.3411 19.682 11.3003 19.6867 11.2593 19.6875H11.2546C11.2218 19.6875 11.189 19.6828 11.1421 19.6781C9.68897 19.4578 8.94835 18.3656 8.66241 16.0219C8.63897 15.8156 8.61085 15.6047 8.57804 15.3984C8.46015 14.7777 8.42234 14.1444 8.46554 13.514C8.48897 13.814 8.53585 14.1328 8.57804 14.4609C8.61085 14.6672 8.63897 14.8781 8.66241 15.0844C8.94835 17.4281 9.68897 18.5203 11.1421 18.7406C11.189 18.7453 11.2218 18.75 11.2546 18.75H11.2593C11.3003 18.7492 11.3411 18.7445 11.3812 18.7359C12.8577 18.5015 13.5421 17.4797 13.8374 15.0844C13.8608 14.8781 13.889 14.6672 13.9218 14.4609C13.964 14.1375 14.0108 13.8187 14.0343 13.5234C14.0751 14.1507 14.0373 14.7805 13.9218 15.3984Z" fill="#9FA5AA"/>
<path opacity="0.5" d="M14.0343 14.4609C14.0025 14.0834 13.8644 13.7226 13.6359 13.4203C13.4065 13.0804 13.1055 12.7948 12.7541 12.5834C12.4027 12.3721 12.0093 12.2402 11.6015 12.1969C11.5312 12.1922 11.3999 12.1875 11.2687 12.1875C11.1187 12.1875 10.964 12.1922 10.8843 12.2016C10.4794 12.2463 10.089 12.3784 9.74016 12.5888C9.39133 12.7993 9.09238 13.083 8.86399 13.4203C8.63905 13.721 8.5012 14.0778 8.46556 14.4516C8.33644 13.7685 8.47943 13.062 8.86399 12.4828C9.09238 12.1455 9.39133 11.8618 9.74016 11.6513C10.089 11.4409 10.4794 11.3088 10.8843 11.2641C10.964 11.2547 11.1187 11.25 11.2687 11.25C11.3999 11.25 11.5312 11.2547 11.6015 11.2594C12.0093 11.3027 12.4027 11.4346 12.7541 11.6459C13.1055 11.8573 13.4065 12.1429 13.6359 12.4828C14.0205 13.0654 14.1634 13.7748 14.0343 14.4609Z" fill="white"/>
<path opacity="0.5" d="M55.7064 27.3234L55.6829 27.3891L54.0564 23.7469C53.8988 23.3888 53.644 23.0821 53.3208 22.8617C52.9976 22.6413 52.619 22.516 52.2282 22.5H45.7969C45.2984 22.4988 44.8124 22.6565 44.4094 22.95L39.5626 26.5547C39.4009 26.6757 39.2044 26.741 39.0024 26.741C38.8005 26.741 38.604 26.6757 38.4423 26.5547L34.6501 23.7328C34.4934 23.5945 34.29 23.521 34.0811 23.5271C33.8722 23.5332 33.6734 23.6185 33.5251 23.7656C33.4884 23.8013 33.4555 23.8406 33.4266 23.8828C33.3378 23.7578 33.2873 23.6095 33.2813 23.4563C33.2731 23.2942 33.3129 23.1334 33.3956 22.9939C33.4784 22.8544 33.6004 22.7423 33.7465 22.6718C33.8925 22.6012 34.0562 22.5753 34.2169 22.5973C34.3776 22.6193 34.5283 22.6882 34.6501 22.7953L38.4423 25.6172C38.604 25.7382 38.8005 25.8035 39.0024 25.8035C39.2044 25.8035 39.4009 25.7382 39.5626 25.6172L44.4094 22.0125C44.8124 21.719 45.2984 21.5613 45.7969 21.5625H52.2282C52.619 21.5785 52.9976 21.7038 53.3208 21.9242C53.644 22.1446 53.8988 22.4513 54.0564 22.8094L55.6829 26.4516C55.8053 26.7278 55.8137 27.0411 55.7064 27.3234Z" fill="#F9EDD2"/>
<path opacity="0.5" d="M51.5343 14.4516C51.4986 14.0778 51.3608 13.721 51.1359 13.4203C50.9075 13.083 50.6085 12.7993 50.2597 12.5889C49.9109 12.3784 49.5205 12.2463 49.1155 12.2016C48.8769 12.1836 48.6372 12.1821 48.3984 12.1969C47.9906 12.2402 47.5972 12.3721 47.2458 12.5835C46.8943 12.7948 46.5934 13.0804 46.364 13.4203C46.1355 13.7226 45.9973 14.0834 45.9655 14.461C45.8365 13.7749 45.9794 13.0655 46.364 12.4828C46.5934 12.1429 46.8943 11.8573 47.2458 11.646C47.5972 11.4346 47.9906 11.3027 48.3984 11.2594C48.6372 11.2446 48.8769 11.2461 49.1155 11.2641C49.5205 11.3088 49.9109 11.4409 50.2597 11.6514C50.6085 11.8618 50.9075 12.1455 51.1359 12.4828C51.5204 13.062 51.6634 13.7685 51.5343 14.4516Z" fill="white"/>
<path opacity="0.5" d="M51.4218 15.3984C51.3891 15.6047 51.361 15.8156 51.3375 16.0219C51.0515 18.3656 50.311 19.4578 48.8531 19.6781C48.7755 19.6928 48.6957 19.6912 48.6188 19.6734C47.1422 19.439 46.4578 18.4172 46.1625 16.0219C46.1391 15.8156 46.1109 15.6047 46.0781 15.3984C45.9626 14.7805 45.9248 14.1507 45.9656 13.5234C45.9891 13.8187 46.0359 14.1375 46.0781 14.4609C46.1109 14.6672 46.1391 14.8781 46.1625 15.0844C46.4578 17.4797 47.1422 18.5015 48.6188 18.7359C48.6957 18.7537 48.7755 18.7553 48.8531 18.7406C50.311 18.5203 51.0515 17.4281 51.3375 15.0844C51.3609 14.8781 51.3891 14.6672 51.4218 14.4609C51.4641 14.1328 51.5109 13.814 51.5344 13.514C51.5776 14.1444 51.5398 14.7777 51.4218 15.3984Z" fill="#9FA5AA"/>
<path opacity="0.45" d="M55.7063 27.3234L54.9938 29.2312C54.9442 29.3233 54.8761 29.4041 54.7938 29.4686C54.7116 29.5331 54.6169 29.58 54.5157 29.6062L47.6531 29.6718C47.4678 29.6708 47.2899 29.5987 47.1562 29.4703C47.0905 29.4044 47.0384 29.3262 47.003 29.2401C46.9676 29.154 46.9496 29.0618 46.95 28.9687C46.9479 28.7956 47.0116 28.6281 47.1281 28.5C47.1363 28.5119 47.1458 28.5229 47.1562 28.5328C47.2899 28.6612 47.4678 28.7333 47.6531 28.7343L54.5156 28.6687C54.6168 28.6425 54.7115 28.5956 54.7938 28.5311C54.8761 28.4666 54.9441 28.3858 54.9937 28.2937L55.6828 26.4515C55.8052 26.7277 55.8136 27.041 55.7063 27.3234Z" fill="#AD9359"/>
<path opacity="0.45" d="M43.5845 33.75H53.3485V34.6875H43.5845V33.75Z" fill="#AD9359"/>
<path opacity="0.5" d="M57.8111 50.9906C57.7168 51.1147 57.5985 51.2186 57.4632 51.2959C57.3279 51.3732 57.1783 51.4224 57.0235 51.4406C56.7199 51.4555 56.4212 51.3589 56.1838 51.169C55.9464 50.979 55.7866 50.7089 55.7345 50.4093L53.7376 41.5687C53.7093 41.4463 53.657 41.3306 53.5838 41.2285C53.5106 41.1263 53.4179 41.0396 53.311 40.9734L48.8438 38.25C48.6788 38.1493 48.4866 38.102 48.2937 38.1145C48.1007 38.1271 47.9163 38.199 47.7657 38.3203L42.9892 42.1922C42.8995 42.2678 42.8235 42.3582 42.7642 42.4593L37.3454 52.0125C37.2588 52.1821 37.1201 52.3196 36.9497 52.4048C36.7794 52.4899 36.5862 52.5184 36.3985 52.4859C36.2572 52.452 36.1253 52.3868 36.0125 52.2951C35.8998 52.2035 35.809 52.0876 35.747 51.9562C35.6715 51.8021 35.6304 51.6335 35.6263 51.4619C35.6223 51.2904 35.6554 51.12 35.7235 50.9625C35.7293 50.982 35.7372 51.0009 35.747 51.0187C35.809 51.1501 35.8998 51.266 36.0125 51.3576C36.1253 51.4493 36.2572 51.5145 36.3985 51.5484C36.5862 51.5809 36.7794 51.5524 36.9497 51.4673C37.1201 51.3821 37.2588 51.2446 37.3454 51.075L42.7642 41.5219C42.8235 41.4207 42.8995 41.3303 42.9892 41.2547L47.7657 37.3828C47.9163 37.2615 48.1007 37.1896 48.2936 37.177C48.4866 37.1645 48.6788 37.2117 48.8438 37.3125L53.311 40.0359C53.4179 40.1021 53.5106 40.1888 53.5838 40.291C53.657 40.3931 53.7092 40.5088 53.7376 40.6312L55.7345 49.4718C55.7866 49.7714 55.9464 50.0415 56.1838 50.2315C56.4212 50.4214 56.7199 50.518 57.0235 50.5031C57.1783 50.4849 57.3278 50.4357 57.4632 50.3584C57.5985 50.2811 57.7168 50.1772 57.811 50.0531C57.9333 49.896 58.0226 49.7159 58.0735 49.5234L58.1157 49.889C58.1637 50.2821 58.0541 50.6781 57.8111 50.9906Z" fill="#9FA5AA"/>
</g>
<defs>
<clipPath id="clip0_227_1327">
<rect width="60" height="60" fill="white"/>
</clipPath>
</defs>
</svg>
