<svg width="65" height="60" viewBox="0 0 65 60" fill="none" xmlns="http://www.w3.org/2000/svg">
<g clip-path="url(#clip0_227_1209)">
<path d="M39.5551 38.0302C39.5551 37.9987 39.5551 37.9619 39.5551 37.9251V3.39076C39.5551 1.47715 38.3013 0.252231 36.7543 0.651775L18.1647 7.84358C16.6176 8.24312 15.3681 10.1147 15.3681 12.0283V44.3756C13.2304 42.9719 10.1363 42.7617 7.05932 44.1022C2.25253 46.1893 -0.688493 51.2415 0.488766 55.3841C1.66603 59.5267 6.51106 61.1933 11.3178 59.1062C15.9376 57.0979 18.8319 52.356 18.0031 48.3132V20.3872C18.0031 18.4736 19.2569 16.602 20.7997 16.2025L34.1193 10.367C35.6663 9.96747 36.9158 11.1976 36.9158 13.106V33.4092C34.778 31.9319 31.6245 31.6953 28.488 33.0569C23.6812 35.144 20.7402 40.1962 21.9174 44.3388C23.0947 48.4814 27.944 50.148 32.7465 48.0609C37.073 46.1788 39.8866 41.8995 39.5466 38.0355L39.5551 38.0302Z" fill="#231F20"/>
<path d="M39.3209 37.4524C39.3209 37.4156 39.3209 37.3841 39.3209 37.3473V2.81825C39.3209 0.90464 38.0672 -0.320279 36.5202 0.0792655L17.9305 7.27632C16.3835 7.67587 15.134 9.54742 15.134 11.461V43.8084C12.9962 42.3994 9.90221 42.1944 6.82519 43.5297C2.0184 45.6168 -0.922624 50.6689 0.254635 54.8116C1.43189 58.9542 6.28118 60.6208 11.0837 58.5337C15.7035 56.5254 18.5978 51.7835 17.769 47.7407V19.8147C17.769 17.901 19.0228 16.0295 20.5655 15.63L33.8851 9.7945C35.4322 9.39496 36.6817 10.6251 36.6817 12.5335V32.8367C34.5396 31.3594 31.3904 31.1228 28.2539 32.4844C23.4471 34.5715 20.506 39.6236 21.6833 43.7663C22.8606 47.9089 27.7098 49.5755 32.5124 47.4884C36.8389 45.6063 39.6524 41.327 39.3124 37.463L39.3209 37.4524Z" fill="url(#paint0_linear_227_1209)"/>
<path d="M18.2071 11.3974L35.6109 4.51049C37.09 4.12672 38.2927 5.30432 38.2927 7.13382V3.95849C38.2927 2.129 37.0942 0.951393 35.6109 1.33517L18.2071 8.22205C16.728 8.60057 15.5295 10.3933 15.5295 12.228V15.4033C15.5295 13.5738 16.728 11.7811 18.2071 11.3974Z" fill="url(#paint1_linear_227_1209)"/>
<path d="M6.66828 44.2284C2.83901 45.8897 0.883991 49.5697 1.52575 51.8303C2.1675 54.0909 5.55053 55.4472 9.37981 53.786C13.2091 52.1247 15.1641 48.4447 14.5223 46.1841C13.8806 43.9235 10.4976 42.5672 6.66828 44.2284Z" fill="url(#paint2_linear_227_1209)"/>
<path d="M27.9014 33.0097C24.0722 34.6762 22.1171 38.351 22.7589 40.6116C23.4007 42.8721 26.7837 44.2285 30.613 42.5672C34.4422 40.9007 36.3973 37.2259 35.7555 34.9654C35.1137 32.7048 31.7307 31.3484 27.9014 33.0097Z" fill="url(#paint3_linear_227_1209)"/>
<path d="M58.1913 44.6913C55.6413 39.9177 50.588 29.5769 52.9255 26.6855C55.994 22.8898 64.9999 27.9524 64.9999 27.9524C62.1353 12.0075 46.7885 18.0795 46.7885 18.0795L55.9983 43.1404C53.9583 42.2624 51.3318 42.2835 48.7137 43.419C43.9069 45.5061 40.9659 50.5582 42.1432 54.7009C43.3204 58.8435 48.1655 60.51 52.9723 58.423C57.7748 56.3359 60.7158 51.2837 59.5428 47.1411C59.2708 46.1895 58.8033 45.3642 58.1913 44.6913Z" fill="#231F20"/>
<path d="M57.9576 44.1128C55.4076 39.3393 50.3543 28.9985 52.6918 26.107C55.7604 22.3114 64.7662 27.374 64.7662 27.374C61.9017 11.429 46.5548 17.5011 46.5548 17.5011L55.7646 42.562C53.7246 41.684 51.0981 41.705 48.4801 42.8406C43.6733 44.9277 40.7365 49.9798 41.9095 54.1225C43.0868 58.2651 47.9318 59.9316 52.7386 57.8445C57.5454 55.7574 60.4864 50.7053 59.3091 46.5627C59.0371 45.6111 58.5696 44.791 57.9576 44.1128Z" fill="url(#paint4_linear_227_1209)"/>
<path d="M57.9533 46.2212C58.8501 49.3807 56.1471 53.4287 51.914 55.2687C47.681 57.1088 43.5245 56.0363 42.6277 52.882C41.731 49.7224 44.434 45.6744 48.667 43.8344C52.8958 41.9944 57.0566 43.0669 57.9533 46.2212Z" fill="url(#paint5_linear_227_1209)"/>
<path d="M48.2931 18.1373C48.6628 19.1467 49.3769 21.0866 50.2014 23.3261C50.2099 23.3156 50.2141 23.3051 50.2226 23.2946C52.5899 20.3611 56.8399 20.9867 60.1422 22.1117C59.5004 21.0024 58.7057 20.1035 57.7452 19.4148C54.7106 17.2541 50.7326 17.6116 48.2931 18.1373Z" fill="url(#paint6_linear_227_1209)"/>
</g>
<defs>
<linearGradient id="paint0_linear_227_1209" x1="6.79574" y1="41.408" x2="47.5556" y2="20.7786" gradientUnits="userSpaceOnUse">
<stop stop-color="#231F20"/>
<stop offset="0.66" stop-color="#5B5C5D"/>
<stop offset="1" stop-color="#757779"/>
</linearGradient>
<linearGradient id="paint1_linear_227_1209" x1="26.0632" y1="-3.75272" x2="30.2781" y2="21.2302" gradientUnits="userSpaceOnUse">
<stop stop-color="#96999B"/>
<stop offset="0.43" stop-color="#ACAFB0"/>
<stop offset="1" stop-color="#C8CACB"/>
</linearGradient>
<linearGradient id="paint2_linear_227_1209" x1="11.3473" y1="53.7212" x2="5.68534" y2="45.5851" gradientUnits="userSpaceOnUse">
<stop stop-color="#96999B"/>
<stop offset="0.43" stop-color="#ACAFB0"/>
<stop offset="1" stop-color="#C8CACB"/>
</linearGradient>
<linearGradient id="paint3_linear_227_1209" x1="33.0662" y1="46.2951" x2="27.1701" y2="35.1705" gradientUnits="userSpaceOnUse">
<stop stop-color="#96999B"/>
<stop offset="0.43" stop-color="#ACAFB0"/>
<stop offset="1" stop-color="#C8CACB"/>
</linearGradient>
<linearGradient id="paint4_linear_227_1209" x1="50.985" y1="36.176" x2="68.0124" y2="31.3409" gradientUnits="userSpaceOnUse">
<stop stop-color="#231F20"/>
<stop offset="0.66" stop-color="#5B5C5D"/>
<stop offset="1" stop-color="#757779"/>
</linearGradient>
<linearGradient id="paint5_linear_227_1209" x1="50.9935" y1="53.2394" x2="47.8994" y2="43.2301" gradientUnits="userSpaceOnUse">
<stop stop-color="#96999B"/>
<stop offset="0.43" stop-color="#ACAFB0"/>
<stop offset="1" stop-color="#C8CACB"/>
</linearGradient>
<linearGradient id="paint6_linear_227_1209" x1="58.9214" y1="28.5291" x2="49.333" y2="17.8703" gradientUnits="userSpaceOnUse">
<stop stop-color="#96999B"/>
<stop offset="0.43" stop-color="#ACAFB0"/>
<stop offset="1" stop-color="#C8CACB"/>
</linearGradient>
<clipPath id="clip0_227_1209">
<rect width="65" height="60" fill="white"/>
</clipPath>
</defs>
</svg>
