<svg width="71" height="60" viewBox="0 0 71 60" fill="none" xmlns="http://www.w3.org/2000/svg">
<g clip-path="url(#clip0_227_1126)">
<path d="M8.77454 18.9384V55.3157H34.7331V16.9339H10.7051C9.63892 16.9339 8.77454 17.8314 8.77454 18.9384Z" fill="#AAA49B"/>
<path d="M58.7617 16.9339H34.7336V55.3157H60.6922V18.9384C60.6922 17.8314 59.8278 16.9339 58.7617 16.9339Z" fill="#83807B"/>
<path d="M58.1182 52.6429V19.6064L11.3486 19.6064V52.6429H58.1182Z" fill="#C9E1EC"/>
<path d="M0 55.3156H69.4667V55.9742C69.4667 58.1377 67.7749 59.8949 65.6906 59.8949H3.7761C1.69233 59.8949 0 58.1383 0 55.9742V55.3156Z" fill="#C9C2B9"/>
<path d="M51.3094 14.2708H18.1571V52.6431H51.3094V14.2708Z" fill="white"/>
<path d="M19.2192 10.0858H50.2473C50.8336 10.0858 51.3094 10.5799 51.3094 11.1886V14.2701H18.1571V11.1886C18.1571 10.5799 18.6329 10.0858 19.2192 10.0858Z" fill="#202526"/>
<path d="M21.129 13.2178C21.6817 13.2178 22.1298 12.7525 22.1298 12.1786C22.1298 11.6047 21.6817 11.1395 21.129 11.1395C20.5763 11.1395 20.1282 11.6047 20.1282 12.1786C20.1282 12.7525 20.5763 13.2178 21.129 13.2178Z" fill="#CD3636"/>
<path d="M24.4033 13.2178C24.956 13.2178 25.4041 12.7525 25.4041 12.1786C25.4041 11.6047 24.956 11.1395 24.4033 11.1395C23.8506 11.1395 23.4025 11.6047 23.4025 12.1786C23.4025 12.7525 23.8506 13.2178 24.4033 13.2178Z" fill="#FFBE31"/>
<path d="M27.6775 13.2178C28.2302 13.2178 28.6783 12.7525 28.6783 12.1786C28.6783 11.6047 28.2302 11.1395 27.6775 11.1395C27.1247 11.1395 26.6766 11.6047 26.6766 12.1786C26.6766 12.7525 27.1247 13.2178 27.6775 13.2178Z" fill="#76C130"/>
<path d="M48.8748 17.1673H35.1558V18.2989H48.8748V17.1673Z" fill="#202526"/>
<path d="M48.8748 22.6944H21.1256V23.826H48.8748V22.6944Z" fill="#454587"/>
<path d="M48.8748 24.7075H21.1256V25.8391H48.8748V24.7075Z" fill="#454587"/>
<path d="M48.8748 26.7202H21.129V27.8518H48.8748V26.7202Z" fill="#454587"/>
<path d="M48.8748 28.7325H21.129V29.8642H48.8748V28.7325Z" fill="#454587"/>
<path d="M48.8828 30.7455H31.7617V31.8771H48.8828V30.7455Z" fill="#454587"/>
<path d="M48.8828 32.7584H31.7617V33.89H48.8828V32.7584Z" fill="#454587"/>
<path d="M48.8828 34.7707H31.7617V35.9023H48.8828V34.7707Z" fill="#454587"/>
<path d="M48.8748 36.7836H21.129V37.9152H48.8748V36.7836Z" fill="#454587"/>
<path d="M48.8748 38.7965H21.129V39.9281H48.8748V38.7965Z" fill="#454587"/>
<path d="M48.8828 40.8088H31.7617V41.9404H48.8828V40.8088Z" fill="#454587"/>
<path d="M48.8828 42.8217H31.7617V43.9533H48.8828V42.8217Z" fill="#454587"/>
<path d="M48.8828 44.8346H31.7617V45.9662H48.8828V44.8346Z" fill="#454587"/>
<path d="M48.8828 46.8475H31.7617V47.9792H48.8828V46.8475Z" fill="#454587"/>
<path d="M48.8828 48.8597H31.7617V49.9914H48.8828V48.8597Z" fill="#454587"/>
<path d="M48.8753 19.3933H38.2506V20.5249H48.8753V19.3933Z" fill="#202526"/>
<path d="M43.6088 38.7724C43.7545 38.8811 43.7874 39.0918 43.6828 39.2431L42.6074 40.7949C42.5027 40.9462 42.2998 40.9804 42.1541 40.8717C42.0084 40.7631 41.9754 40.5524 42.0801 40.4011L43.1555 38.8492C43.2601 38.698 43.4631 38.6637 43.6088 38.7724Z" fill="#AAA49B"/>
<path d="M44.7363 33.5039L48.0603 35.9876L69.8385 4.5655L66.5145 2.08181L44.7363 33.5039Z" fill="#FCAE34"/>
<path d="M65.4719 3.58198L68.7959 6.06567L69.8371 4.56342L66.5131 2.07973L65.4719 3.58198Z" fill="#AAA49B"/>
<path d="M69.837 4.56335L66.513 2.07966L67.3306 0.899979C67.9274 0.0389722 69.0846 -0.156933 69.9139 0.462675L70.2335 0.701473C71.0627 1.32108 71.2514 2.52267 70.6547 3.38367L69.837 4.56335Z" fill="#D1CABE"/>
<path d="M43.0902 38.9435L43.1555 38.8492C43.2602 38.6979 43.4631 38.6637 43.6088 38.7724C43.7545 38.881 43.7875 39.0917 43.6828 39.243L43.6175 39.3373L48.0839 36.0103L44.7085 33.4889L43.0896 38.9429L43.0902 38.9435Z" fill="#FCD875"/>
</g>
<defs>
<clipPath id="clip0_227_1126">
<rect width="71" height="59.7895" fill="white" transform="translate(0 0.105286)"/>
</clipPath>
</defs>
</svg>
