<svg width="40" height="40" viewBox="0 0 40 40" fill="none" xmlns="http://www.w3.org/2000/svg">
<circle cx="20" cy="20" r="20" fill="#FDE8E7"/>
<path d="M17.625 15.17H17.5C17.5687 15.17 17.625 15.1115 17.625 15.04V15.17ZM17.625 15.17H22.375V15.04C22.375 15.1115 22.4312 15.17 22.5 15.17H22.375V16.34H23.5V15.04C23.5 14.4664 23.0516 14 22.5 14H17.5C16.9484 14 16.5 14.4664 16.5 15.04V16.34H17.625V15.17ZM25.5 16.34H14.5C14.2234 16.34 14 16.5724 14 16.86V17.38C14 17.4515 14.0562 17.51 14.125 17.51H15.0687L15.4547 26.0087C15.4797 26.5629 15.9203 27 16.4531 27H23.5469C24.0813 27 24.5203 26.5645 24.5453 26.0087L24.9312 17.51H25.875C25.9438 17.51 26 17.4515 26 17.38V16.86C26 16.5724 25.7766 16.34 25.5 16.34ZM23.4266 25.83H16.5734L16.1953 17.51H23.8047L23.4266 25.83Z" fill="#C7120F"/>
</svg>
