<svg width="44" height="46" viewBox="0 0 44 46" fill="none" xmlns="http://www.w3.org/2000/svg">
<path d="M1.70081 16.6284H43.2721V43.8807C43.2721 44.9011 42.4449 45.7283 41.4245 45.7283H3.54842C2.52801 45.7283 1.70081 44.9011 1.70081 43.8807V16.6284Z" fill="#FEC353"/>
<path d="M43.2719 43.8809C43.2719 44.9013 42.4446 45.7285 41.4242 45.7285H22.4847V19.4004H43.2719V43.8809Z" fill="#FF9E39"/>
<path d="M1.70081 14.5023C1.70081 13.1647 2.5727 11.9833 3.85086 11.5891L38.5123 0.898311C40.1212 0.402075 41.8277 1.30405 42.324 2.91294L43.0591 5.29641L1.70081 18.2912L1.70081 14.5023Z" fill="#4E5E82"/>
<path d="M29.8017 3.5858L33.9818 2.29652L29.8523 9.44683L25.6552 10.7655L29.8017 3.5858Z" fill="#E2E6F1"/>
<path d="M20.3014 6.51602L24.4815 5.22674L20.3134 12.4439L16.1163 13.7627L20.3014 6.51602Z" fill="#E2E6F1"/>
<path d="M10.5526 9.52289L14.7333 8.23343L10.5963 15.4971L6.39893 16.8159L10.5526 9.52289Z" fill="#E2E6F1"/>
<path d="M35.0674 7.80825L38.9009 1.17041C39.9191 1.28186 40.8715 1.73438 41.6004 2.44474L39.2645 6.48953L35.0674 7.80825Z" fill="#E2E6F1"/>
<rect x="1.70081" y="16.6284" width="41.5713" height="5.54283" fill="#3E4466"/>
<path d="M43.2715 17.73L38.0703 22.1714H33.8027L40.2949 16.6284H43.2715V17.73Z" fill="#CED6E7"/>
<path d="M28.4999 22.1714H24.2323L30.7245 16.6284H34.9921L28.4999 22.1714Z" fill="#CED6E7"/>
<path d="M18.7997 22.1714H14.5321L21.0243 16.6284H25.2919L18.7997 22.1714Z" fill="#CED6E7"/>
<path d="M8.25537 22.1714H3.98779L10.48 16.6284H14.7476L8.25537 22.1714Z" fill="#CED6E7"/>
<rect x="7.24512" y="27.7144" width="30.4856" height="1.38571" rx="0.692854" fill="white"/>
<rect x="7.24512" y="38.7998" width="30.4856" height="1.38571" rx="0.692854" fill="white"/>
<rect x="14.1741" y="27.7144" width="1.38571" height="12.4714" rx="0.692854" fill="white"/>
<rect x="29.4136" y="27.7144" width="1.38571" height="12.4714" rx="0.692854" fill="white"/>
</svg>
