<svg width="40" height="40" viewBox="0 0 40 40" fill="none" xmlns="http://www.w3.org/2000/svg">
<circle cx="20" cy="20" r="20" fill="#1F1F1F"/>
<path d="M24.0482 23.3092C23.4378 23.3092 22.8916 23.5502 22.4739 23.9277L16.747 20.5944C16.7871 20.4096 16.8193 20.2249 16.8193 20.0321C16.8193 19.8394 16.7871 19.6546 16.747 19.4699L22.4096 16.1687C22.8434 16.5703 23.4137 16.8193 24.0482 16.8193C25.3815 16.8193 26.4578 15.743 26.4578 14.4096C26.4578 13.0763 25.3815 12 24.0482 12C22.7149 12 21.6386 13.0763 21.6386 14.4096C21.6386 14.6024 21.6707 14.7871 21.7108 14.9719L16.0482 18.2731C15.6145 17.8715 15.0442 17.6225 14.4096 17.6225C13.0763 17.6225 12 18.6988 12 20.0321C12 21.3655 13.0763 22.4418 14.4096 22.4418C15.0442 22.4418 15.6145 22.1928 16.0482 21.7912L21.7671 25.1325C21.7269 25.3012 21.7028 25.4779 21.7028 25.6546C21.7028 26.9478 22.755 28 24.0482 28C25.3414 28 26.3936 26.9478 26.3936 25.6546C26.3936 24.3614 25.3414 23.3092 24.0482 23.3092Z" fill="white"/>
</svg>
