<svg width="48" height="28" viewBox="0 0 48 28" fill="none" xmlns="http://www.w3.org/2000/svg">
<rect width="48" height="28" rx="7" fill="#E9F5EB"/>
<path d="M32.71 9.04C32.8027 8.94749 32.8762 8.8376 32.9264 8.71662C32.9766 8.59565 33.0024 8.46597 33.0024 8.335C33.0024 8.20403 32.9766 8.07435 32.9264 7.95338C32.8762 7.8324 32.8027 7.72251 32.71 7.63L30.37 5.29C30.17 5.09 29.92 5 29.66 5C29.4 5 29.15 5.1 28.96 5.29L27.13 7.12L30.88 10.87L32.71 9.04ZM15 19.25V23H18.75L29.81 11.94L26.06 8.19L15 19.25ZM17.92 21H17V20.08L26.06 11.02L26.98 11.94L17.92 21Z" fill="#4F9B51"/>
</svg>
