<svg width="48" height="28" viewBox="0 0 48 28" fill="none" xmlns="http://www.w3.org/2000/svg">
<rect width="48" height="28" rx="7" fill="#FDE8E7"/>
<path d="M21.2292 8.3125H21.0833C21.1635 8.3125 21.2292 8.24687 21.2292 8.16667V8.3125ZM21.2292 8.3125H26.7708V8.16667C26.7708 8.24687 26.8365 8.3125 26.9167 8.3125H26.7708V9.625H28.0833V8.16667C28.0833 7.52318 27.5602 7 26.9167 7H21.0833C20.4398 7 19.9167 7.52318 19.9167 8.16667V9.625H21.2292V8.3125ZM30.4167 9.625H17.5833C17.2607 9.625 17 9.88568 17 10.2083V10.7917C17 10.8719 17.0656 10.9375 17.1458 10.9375H18.2469L18.6971 20.4714C18.7263 21.093 19.2404 21.5833 19.862 21.5833H28.138C28.7615 21.5833 29.2737 21.0948 29.3029 20.4714L29.7531 10.9375H30.8542C30.9344 10.9375 31 10.8719 31 10.7917V10.2083C31 9.88568 30.7393 9.625 30.4167 9.625ZM27.9977 20.2708H20.0023L19.5612 10.9375H28.4388L27.9977 20.2708Z" fill="#C7120F"/>
</svg>
