<svg width="48" height="28" viewBox="0 0 48 28" fill="none" xmlns="http://www.w3.org/2000/svg">
<rect width="48" height="28" rx="7" fill="#E4F2FD"/>
<path d="M33.544 13.045C33.848 13.471 34 13.685 34 14C34 14.316 33.848 14.529 33.544 14.955C32.178 16.871 28.689 21 24 21C19.31 21 15.822 16.87 14.456 14.955C14.152 14.529 14 14.315 14 14C14 13.684 14.152 13.471 14.456 13.045C15.822 11.129 19.311 7 24 7C28.69 7 32.178 11.13 33.544 13.045Z" stroke="#378BCB" stroke-width="1.5"/>
<path d="M27 14C27 13.2044 26.6839 12.4413 26.1213 11.8787C25.5587 11.3161 24.7956 11 24 11C23.2044 11 22.4413 11.3161 21.8787 11.8787C21.3161 12.4413 21 13.2044 21 14C21 14.7956 21.3161 15.5587 21.8787 16.1213C22.4413 16.6839 23.2044 17 24 17C24.7956 17 25.5587 16.6839 26.1213 16.1213C26.6839 15.5587 27 14.7956 27 14Z" stroke="#378BCB" stroke-width="1.5"/>
</svg>
