<svg width="28" height="19" viewBox="0 0 28 19" fill="none" xmlns="http://www.w3.org/2000/svg">
<g clip-path="url(#clip0_227_4706)">
<path d="M27.3816 2.96347C27.221 2.39068 26.9077 1.86849 26.473 1.44889C26.0382 1.02928 25.4971 0.72692 24.9036 0.5719C22.7308 0 13.9858 0 13.9858 0C13.9858 0 5.2404 0.0173111 3.06755 0.589211C2.47403 0.744241 1.93294 1.04662 1.49818 1.46624C1.06341 1.88586 0.750139 2.40808 0.589552 2.98089C-0.0676821 6.70679 -0.322635 12.3842 0.607599 15.9611C0.768202 16.5338 1.08148 17.056 1.51625 17.4756C1.95101 17.8952 2.49209 18.1976 3.0856 18.3526C5.25844 18.9245 14.0036 18.9245 14.0036 18.9245C14.0036 18.9245 22.7487 18.9245 24.9214 18.3526C25.515 18.1976 26.0561 17.8953 26.4909 17.4757C26.9256 17.0561 27.2389 16.5339 27.3996 15.9611C28.0928 12.2299 28.3064 6.55595 27.3816 2.96347Z" fill="#FF0000"/>
<path d="M11.2021 13.5175L18.4568 9.46222L11.2021 5.40698V13.5175Z" fill="white"/>
</g>
<defs>
<clipPath id="clip0_227_4706">
<rect width="28" height="19" fill="white"/>
</clipPath>
</defs>
</svg>
